<svg xmlns="http://www.w3.org/2000/svg" viewBox="0 0 750 500"><g id="freepik--character-2--inject-17"><path d="M453.53,212.53l2.08,8.44,26.09,5v11.14s-34.54,3.09-37.9,1.32-8.53-21.06-8.53-21.06Z" style="fill:#ffbe9d"></path><path d="M455.09,221.4c.08.14-1.46,1-2.88,2.59s-2.17,3.17-2.32,3.11a8.67,8.67,0,0,1,5.2-5.7Z" style="fill:#eb996e"></path><path d="M453.53,212.53l2.08,8.44,26.09,5v11.14s-34.54,3.09-37.9,1.32-8.53-21.06-8.53-21.06Z" style="fill:#ffbe9d"></path><polygon points="416.34 157.72 409.05 156.14 383.02 158.28 377.47 160.67 401.23 188.48 416.34 157.72" style="fill:#ffbe9d"></polygon><path d="M425.93,128.6q-1.26-8.84-2.51-17.67l-18.82-3.19-4.32,47.74,26.88,2h0a8.55,8.55,0,0,0,1.35-5C428.19,145.77,426.29,131.15,425.93,128.6Z" style="fill:#263238"></path><path d="M373.78,116.33a29.62,29.62,0,0,1,10.93-20.18c5.55-4.28,11.84-5.44,18.84-5.09,3.44.18,7.32,1.8,10.31,3.52,4.1,2.37,5.8,7.11,7.75,11.42,3.91,8.63,3.31,20.27.59,23.48l-49.12,29c-6.34-3.37-5.51-14.62-3.34-21.46A118.8,118.8,0,0,0,373.78,116.33Z" style="fill:#263238"></path><path d="M385.6,102.68l22.68-6.49c7.29-1,12.44,7.86,13.13,15.19.77,8.14,1.38,18.12.61,24.23-1.56,12.31-10.9,14.16-10.9,14.16s0,.18,0,3.82l.17,5.29c-2.77,10-22.16,8.36-24.22,1.29l-5.2-53A4.3,4.3,0,0,1,385.6,102.68Z" style="fill:#ffbe9d"></path><path d="M418.57,123.25a1.57,1.57,0,0,1-1.47,1.63,1.49,1.49,0,0,1-1.66-1.36,1.58,1.58,0,0,1,1.46-1.64A1.51,1.51,0,0,1,418.57,123.25Z" style="fill:#263238"></path><path d="M419.26,118.48c-.19.21-1.4-.63-3.09-.58s-2.9.94-3.09.74.09-.46.62-.87a4.29,4.29,0,0,1,2.46-.85,4.23,4.23,0,0,1,2.48.72C419.17,118,419.36,118.38,419.26,118.48Z" style="fill:#263238"></path><path d="M402.79,123.08a1.58,1.58,0,0,1-1.46,1.64,1.5,1.5,0,0,1-1.66-1.37,1.56,1.56,0,0,1,1.46-1.63A1.5,1.5,0,0,1,402.79,123.08Z" style="fill:#263238"></path><path d="M402.76,118.54c-.19.21-1.41-.63-3.1-.58s-2.9,1-3.09.74.09-.46.62-.87a4.3,4.3,0,0,1,2.47-.85,4.19,4.19,0,0,1,2.47.72C402.66,118.08,402.85,118.44,402.76,118.54Z" style="fill:#263238"></path><path d="M409.16,130.38a11.46,11.46,0,0,1,2.72-.58c.43-.05.84-.15.9-.45a2.17,2.17,0,0,0-.32-1.27l-1.38-3.24c-1.92-4.63-3.32-8.43-3.14-8.51s1.9,3.61,3.81,8.23c.47,1.14.91,2.23,1.33,3.27a2.49,2.49,0,0,1,.28,1.69,1.11,1.11,0,0,1-.69.65,3.15,3.15,0,0,1-.73.12A10.49,10.49,0,0,1,409.16,130.38Z" style="fill:#263238"></path><path d="M411.12,149.77a28.27,28.27,0,0,1-16.71-3.29s4.51,8.32,16.73,6.79Z" style="fill:#eb996e"></path><path d="M403.61,133.73a2.25,2.25,0,0,1,1.84-1.08,2.92,2.92,0,0,1,2.71,1.24,1.81,1.81,0,0,1,.16,1.31c-.09.22,0,.11-.19.27a5.06,5.06,0,0,1-2.05,1.36,2.2,2.2,0,0,1-2.35-.78A2.23,2.23,0,0,1,403.61,133.73Z" style="fill:#eb996e"></path><path d="M403.92,131.78c.27,0,.34,1.81,2,3.05s3.56,1,3.59,1.23c0,.11-.43.37-1.25.42a4.56,4.56,0,0,1-3-.92A4,4,0,0,1,403.7,133C403.6,132.23,403.79,131.77,403.92,131.78Z" style="fill:#263238"></path><path d="M403.36,113.2c-.13.47-1.83.41-3.78.82s-3.51,1.1-3.81.71c-.13-.19.11-.64.71-1.14a6.45,6.45,0,0,1,2.76-1.25,6.35,6.35,0,0,1,3,.08C403,112.65,403.41,113,403.36,113.2Z" style="fill:#263238"></path><path d="M419.18,114.77c-.39.33-1.61-.26-3.16-.52s-2.89-.18-3.13-.62c-.1-.22.16-.56.79-.84a5.08,5.08,0,0,1,5.07.92C419.23,114.19,419.35,114.61,419.18,114.77Z" style="fill:#263238"></path><path d="M408.3,95.34a27.23,27.23,0,0,1-2,14.59,10,10,0,0,1-2.27,3.46,4.5,4.5,0,0,1-3.83,1.21,16.53,16.53,0,0,0,3.41-9.49c-1.47,3.47-3,7-5.46,9.85s-6.13,4.93-9.89,4.57l.27-2.51a8.73,8.73,0,0,1-3,4.67,4.46,4.46,0,0,1-5.26.1c1.29-6.12-2.44-12.79-.06-18.58,1.64-4,5.82-6.4,10-7.7a34.74,34.74,0,0,1,18.07-.66" style="fill:#263238"></path><path d="M407.8,95.44c0,.09,0,.18.05.27l0,0Z" style="fill:#263238"></path><path d="M407.85,95.71l.75-.31c2.31-1.18,3.83-2.53,7.41.66a22.19,22.19,0,0,1,4.91,7,28.57,28.57,0,0,1,2.69,7.47,32.73,32.73,0,0,1,.23,9.4c-2.08-1.38-3.13-3.85-3.79-6.25s-1-4.92-2.25-7.1a18.79,18.79,0,0,1,.35,6.2,2.51,2.51,0,0,1-.68,1.53,1.08,1.08,0,0,1-1.52,0,13.29,13.29,0,0,0,0-7.37,37.09,37.09,0,0,0-2.75-6.92,36.68,36.68,0,0,1-.51,12.45,3.16,3.16,0,0,1-.7,1.63,2.93,2.93,0,0,1-2.54.51,6.16,6.16,0,0,0-2.66-.12A35.19,35.19,0,0,0,407.85,95.71Z" style="fill:#263238"></path><path d="M391.83,143.71c-1.89-7.13-.66-25.42-3.06-32.4l-9.45,1.24-6.24,45.89,21.87.84Z" style="fill:#263238"></path><path d="M422.75,442.58l-1,18.42s18.4,5.84,18.55,9.26l-35.79.73.34-28.76Z" style="fill:#455a64"></path><g style="opacity:0.6000000000000001"><path d="M410.74,459.26a1.46,1.46,0,0,0-1,1.66,1.41,1.41,0,0,0,1.63,1,1.55,1.55,0,0,0,1.09-1.75,1.45,1.45,0,0,0-1.81-.9" style="fill:#fff"></path></g><g style="opacity:0.6000000000000001"><path d="M404.54,471l0-2.89,34.58.49a2.47,2.47,0,0,1,1.35,1.93Z" style="fill:#fff"></path></g><path d="M422.36,460.83c0,.18-.88.24-1.75.79s-1.34,1.27-1.5,1.2.12-1.08,1.18-1.72S422.4,460.67,422.36,460.83Z" style="fill:#263238"></path><path d="M426.09,462.45c0,.17-.73.45-1.33,1.18s-.79,1.51-1,1.5-.27-1,.51-1.89S426.09,462.28,426.09,462.45Z" style="fill:#263238"></path><path d="M428.14,467c-.16,0-.38-.85.08-1.8s1.29-1.31,1.36-1.16-.44.65-.81,1.43S428.32,467,428.14,467Z" style="fill:#263238"></path><path d="M422.12,456.61c-.08.16-.88-.1-1.86-.05s-1.77.35-1.86.2.67-.76,1.83-.81S422.21,456.47,422.12,456.61Z" style="fill:#263238"></path><path d="M422.25,452.89a3.4,3.4,0,0,1-1.8,0,8.44,8.44,0,0,1-2.88-1.17,2.18,2.18,0,0,1-.53-.43.75.75,0,0,1-.07-.93,1,1,0,0,1,.77-.39,2.49,2.49,0,0,1,.67.1,6.9,6.9,0,0,1,1.11.41,6.25,6.25,0,0,1,1.64,1.11c.81.78,1.09,1.44,1,1.47s-.48-.5-1.31-1.15a7.33,7.33,0,0,0-1.59-.92,6.42,6.42,0,0,0-1-.34c-.38-.1-.7-.11-.8.05s0,.09,0,.21a2,2,0,0,0,.39.31,9.3,9.3,0,0,0,.94.56,9.48,9.48,0,0,0,1.72.69A11,11,0,0,1,422.25,452.89Z" style="fill:#263238"></path><path d="M422,453.14a3,3,0,0,1-.44-1.74,5.82,5.82,0,0,1,.28-2,6.32,6.32,0,0,1,.47-1.08,1.5,1.5,0,0,1,1.16-.89.84.84,0,0,1,.74.52,2.26,2.26,0,0,1,.18.66,4.37,4.37,0,0,1,0,1.2,4.16,4.16,0,0,1-.8,1.84c-.72.92-1.45,1.11-1.46,1.05s.56-.41,1.11-1.29a4.17,4.17,0,0,0,.59-1.68,4,4,0,0,0,0-1c-.05-.39-.19-.7-.33-.66s-.49.28-.64.58a6,6,0,0,0-.46,1,6.48,6.48,0,0,0-.38,1.78C421.93,452.45,422.11,453.11,422,453.14Z" style="fill:#263238"></path><path d="M385.35,440.58l-.69,23.79-6,18.65a2.43,2.43,0,0,0,1.73,3.11h0a2.45,2.45,0,0,0,2.18-.51c3.8-3.3,17.74-15.47,17.7-17.21-.06-2,2.38-25,2.38-25Z" style="fill:#455a64"></path><g style="opacity:0.6000000000000001"><path d="M380.43,486.13l20-19.33-.05,1a3.68,3.68,0,0,1-1,2.33c-1.6,1.7-6.12,6.28-16.66,15.48a2.45,2.45,0,0,1-2.25.51Z" style="fill:#fff"></path></g><g style="opacity:0.6000000000000001"><path d="M395.91,458.89a1.46,1.46,0,0,0-.5,1.9,1.41,1.41,0,0,0,1.88.51,1.55,1.55,0,0,0,.52-2,1.47,1.47,0,0,0-2-.32" style="fill:#fff"></path></g><path d="M386.4,476c-.13.06-.61-1.21-2-1.95a7.35,7.35,0,0,0-2.7-.67c0-.06.29-.23.85-.28a3.85,3.85,0,0,1,2.11.49,3.76,3.76,0,0,1,1.52,1.54C386.44,475.66,386.46,476,386.4,476Z" style="fill:#263238"></path><path d="M384.55,479.13a7.33,7.33,0,0,0-4.36-1.55,2.7,2.7,0,0,1,2.48-.08C384.05,478,384.67,479.07,384.55,479.13Z" style="fill:#263238"></path><path d="M389.76,472.12a22.68,22.68,0,0,0-3-2,25.14,25.14,0,0,0-3.49-1,5.44,5.44,0,0,1,3.7.53A5.33,5.33,0,0,1,389.76,472.12Z" style="fill:#263238"></path><path d="M390.58,464.9c-.07.14-1.36-.47-3.06-.62s-3.08.19-3.13,0a4.69,4.69,0,0,1,3.18-.56A4.74,4.74,0,0,1,390.58,464.9Z" style="fill:#263238"></path><path d="M391,457.93a11.65,11.65,0,0,0-3.16-.74,11.78,11.78,0,0,0-3.2.63c0-.06.24-.34.81-.63a5.15,5.15,0,0,1,2.4-.52,5.2,5.2,0,0,1,2.37.6C390.73,457.58,391,457.88,391,457.93Z" style="fill:#263238"></path><path d="M387.9,455.86a2,2,0,0,1,0-.9,6.06,6.06,0,0,1,.84-2.31,2.77,2.77,0,0,1,1.25-1.27,1,1,0,0,1,1.09.28,1.51,1.51,0,0,1,.32,1.09,3.44,3.44,0,0,1-3.18,3,4,4,0,0,1-3.81-2.29,1.38,1.38,0,0,1,0-1.16,1,1,0,0,1,1-.45,3.41,3.41,0,0,1,1.52.89,7.09,7.09,0,0,1,1.53,1.93,2.11,2.11,0,0,1,.32.84,11.23,11.23,0,0,0-2.09-2.49,3.09,3.09,0,0,0-1.35-.74.51.51,0,0,0-.56.24.94.94,0,0,0,.05.76,3.56,3.56,0,0,0,3.33,1.95,3,3,0,0,0,2.73-2.53,1.16,1.16,0,0,0-.19-.78.55.55,0,0,0-.6-.16,2.54,2.54,0,0,0-1.08,1A9.17,9.17,0,0,0,387.9,455.86Z" style="fill:#263238"></path><polygon points="411.07 289.33 406.4 454.62 381 456.67 359.82 285.53 411.07 289.33" style="fill:#E85745"></polygon><path d="M445.32,287.23s-3.44,52.46-6.72,72.12-11.27,90.7-15,92.34-25.53-.59-25.53-.59l-7.78-162.21Z" style="fill:#E85745"></path><g style="opacity:0.30000000000000004"><polygon points="444.61 297.51 444.39 300.47 403.95 305.57 392.28 298.93 368.86 297.72 444.61 297.51"></polygon></g><path d="M407.27,453c.14,0-.49-33.84-1.41-75.56s-1.77-75.56-1.91-75.55.5,33.82,1.42,75.56S407.14,453,407.27,453Z" style="fill:#263238"></path><path d="M436.76,218.46,457,211.31S444.11,167,441.84,166.48s-27.08-11.39-27.08-11.39L399.84,185.2l-22.78-26.06s-21.25,15.94-22.52,19.48,16.2,54.4,16.2,54.4-7.85,12.15-9.36,25.81,1.51,39.47,1.51,39.47l86.23-.79s.92-38.12-5.64-58C440.87,231.63,438.06,222.65,436.76,218.46Z" style="fill:#E85745"></path><path d="M393.84,197.56a2.88,2.88,0,0,0-.45-.17,6.19,6.19,0,0,0-1.4-.31,13.9,13.9,0,0,0-5.36.58c-2.25.6-4.91,1.57-8,2.61-1.53.52-3.16,1-4.91,1.49a23.67,23.67,0,0,1-5.54.9H368l0,.25c1.31,7.23,2.84,15.71,4.46,24.73.09.47.17.92.25,1.37l.06.32.29-.13q3.1-1.42,6.17-2.65a45.05,45.05,0,0,1,6-2.08,83.51,83.51,0,0,1,11.6-1.52l.23,0,0-.22c-.94-7.55-1.73-13.85-2.28-18.3-.29-2.16-.51-3.87-.67-5.08-.08-.56-.14-1-.18-1.33a2.14,2.14,0,0,0-.09-.44l0,.48c0,.34.08.79.14,1.36.13,1.23.32,3,.55,5.14.51,4.43,1.22,10.7,2.08,18.22l.19-.24A83.66,83.66,0,0,0,385.15,224a47.05,47.05,0,0,0-6.12,2.09q-3.06,1.23-6.19,2.66l.35.18c-.08-.45-.16-.91-.25-1.37l-4.52-24.73-.23.26a23.74,23.74,0,0,0,5.67-.94c1.76-.47,3.4-1,4.92-1.54,3.05-1.07,5.69-2.07,7.92-2.7a11.44,11.44,0,0,1,7.14-.35Z" style="fill:#263238"></path><polygon points="354.54 178.62 341.39 228.22 368.03 237.86 370.74 233.02 354.54 178.62" style="fill:#E85745"></polygon><path d="M449.12,287.93l-.22,0-.63.11-2.45.41c-2.12.34-5.2.81-9,1.08a40.82,40.82,0,0,1-6.26,0,14,14,0,0,1-1.69-.24c-.28-.06-.57-.1-.85-.18l-.83-.27c-1.12-.31-1.73-1.49-2.24-2.59a21.42,21.42,0,0,1-1.13-3.69c-.29-1.3-.52-2.63-.71-4-.39-2.73-.64-5.58-.82-8.51-.38-6.39-.43-12.48-.34-17.86l-.22.22,17.79-.38,5.06-.14,1.34-.06a2.1,2.1,0,0,0,.46,0l-.46,0h-6.4l-17.8.2h-.22v.22c-.12,5.39-.09,11.49.3,17.9.18,2.94.43,5.8.83,8.55.19,1.38.43,2.72.73,4a22,22,0,0,0,1.17,3.77,8.48,8.48,0,0,0,1,1.68,5,5,0,0,0,.68.7,3.39,3.39,0,0,0,.87.44l.87.28c.3.08.59.12.88.18a13,13,0,0,0,1.73.23,39.93,39.93,0,0,0,6.32-.06,84.23,84.23,0,0,0,9.05-1.24c1.06-.2,1.87-.38,2.43-.5l.62-.16C449.05,288,449.13,287.94,449.12,287.93Z" style="fill:#263238"></path><path d="M421.94,258.43c0,.14,5.68.25,12.68.25s12.68-.11,12.68-.25-5.68-.25-12.68-.25S421.94,258.3,421.94,258.43Z" style="fill:#263238"></path><path d="M410.48,203.08c-.11.08,6.4,8.87,14.55,19.62S439.86,242.11,440,242s-6.4-8.87-14.55-19.63S410.59,203,410.48,203.08Z" style="fill:#263238"></path><path d="M438,208.73a8.33,8.33,0,0,0,.28-1.51c.15-1,.33-2.39.52-4.15a133.94,133.94,0,0,0,.81-13.78,117.52,117.52,0,0,0-.71-13.8c-.2-1.75-.4-3.17-.56-4.15a9.25,9.25,0,0,0-.3-1.5,10.15,10.15,0,0,0,.11,1.53c.1,1,.24,2.4.4,4.16.31,3.51.6,8.37.57,13.75s-.37,10.24-.66,13.76c-.15,1.69-.28,3.09-.37,4.16A9.67,9.67,0,0,0,438,208.73Z" style="fill:#263238"></path><path d="M418.78,192.82a7.64,7.64,0,0,0,.45,1.34c.32.85.81,2.06,1.43,3.56,1.25,3,3,7.09,5.2,11.55s4.24,8.42,5.81,11.26c.78,1.42,1.43,2.56,1.9,3.33a7.51,7.51,0,0,0,.76,1.19,7.42,7.42,0,0,0-.59-1.28c-.46-.88-1.05-2-1.76-3.41-1.49-2.87-3.52-6.86-5.67-11.31s-4-8.51-5.33-11.47l-1.57-3.5A8.79,8.79,0,0,0,418.78,192.82Z" style="fill:#263238"></path><path d="M370.74,164a3.85,3.85,0,0,0,.44.65c.32.45.77,1.06,1.33,1.82l5,6.69,17.05,22.43.07.09h11l.07-.14c4.89-10.35,9.23-19.54,12.38-26.19,1.53-3.29,2.76-6,3.64-7.83l1-2.12c.1-.22.17-.41.24-.56a1.94,1.94,0,0,0,.07-.19s0,.05-.11.17l-.28.54-1.05,2.09-3.77,7.75c-3.18,6.64-7.58,15.81-12.53,26.12l.23-.14H394.77l.2.1L377.79,173l-5.14-6.6-1.4-1.76A5.37,5.37,0,0,0,370.74,164Z" style="fill:#263238"></path><path d="M372.66,254.62a4.08,4.08,0,0,0,.69-.8c.42-.53,1-1.32,1.67-2.33a51.88,51.88,0,0,0,7.35-17.35c.26-1.19.43-2.15.52-2.82a4.58,4.58,0,0,0,.09-1c-.08,0-.35,1.45-1,3.79a61.89,61.89,0,0,1-7.31,17.24C373.46,253.35,372.6,254.57,372.66,254.62Z" style="fill:#263238"></path><path d="M379.3,240.43c.08-.13-2.21-1.72-4.82-4s-4.55-4.24-4.65-4.14a22.42,22.42,0,0,0,4.33,4.52A23.44,23.44,0,0,0,379.3,240.43Z" style="fill:#263238"></path><path d="M367.11,239.76a1.75,1.75,0,0,0,.22-.34l.56-1c.51-.94,1.2-2.22,2.07-3.81l0-.05v-.06c-1.39-5.34-3.74-14.1-6.42-24-2.25-8.15-4.29-15.52-5.78-20.93l-1.8-6.33c-.21-.7-.38-1.27-.52-1.71a2.5,2.5,0,0,0-.21-.59,4.65,4.65,0,0,0,.12.61l.42,1.74c.41,1.56,1,3.72,1.65,6.37,1.46,5.42,3.45,12.8,5.64,21,2.69,9.87,5.11,18.61,6.62,23.92v-.11l-1.95,3.88-.49,1A1.46,1.46,0,0,0,367.11,239.76Z" style="fill:#263238"></path><g style="opacity:0.30000000000000004"><path d="M415.89,204.37A204.19,204.19,0,0,1,438,240.17l-.66-.32-6.27-8.73-15.39-21.39a6.41,6.41,0,0,1-1.41-2.89A2.18,2.18,0,0,1,415.89,204.37Z"></path></g><g style="opacity:0.30000000000000004"><path d="M438,208.73a33.55,33.55,0,0,0,1.1-28.73S439,204.06,438,208.73Z"></path></g><path d="M369.48,208.21a4.25,4.25,0,0,0,1-.09c.65-.09,1.58-.24,2.73-.44,2.3-.41,5.46-1.06,8.92-1.91s6.55-1.75,8.78-2.46c1.11-.36,2-.66,2.62-.88a3.53,3.53,0,0,0,.94-.4,4.63,4.63,0,0,0-1,.21l-2.66.73c-2.25.62-5.35,1.47-8.8,2.32s-6.59,1.55-8.87,2.05l-2.69.59A3.67,3.67,0,0,0,369.48,208.21Z" style="fill:#263238"></path><g style="opacity:0.30000000000000004"><path d="M396.85,222.73S380,230.93,373,229C373,229,385,222.24,396.85,222.73Z"></path></g><g style="opacity:0.30000000000000004"><path d="M369.06,232.34s-13-8.14-10.51-40Z"></path></g><path d="M349.85,231.31S348,262.24,348.74,267s3.48,26.57,3.48,26.57l10.94-2.28,3-54.12Z" style="fill:#ffbe9d"></path><path d="M368.06,312.15c-.75-2.62-.13-7.61-.5-9.36-.18-.82-2.77-9.58-3.46-10.62l.66-14.23-17.42.73,3.71,14.06c-.9,2-3.71,11.06-3.71,11.47s.63,7.7.63,7.7l3.47,3.81a1,1,0,0,0,1.52-.12l.37-.57a2.58,2.58,0,0,0,2,1.84c2,.35,2-.22,2-.22l.46-1.75s2.9,2.28,3.65,2.39,1.25-3.26,1.25-3.26l-2.49-5.49.74-5.49s4,11.85,5.07,11.85S368.8,314.77,368.06,312.15Zm-17-19.45Z" style="fill:#455a64"></path><path d="M449.13,297.51c0,.15-18.55.4-41.43.57s-41.42.19-41.43,0,18.55-.39,41.43-.56S449.12,297.37,449.13,297.51Z" style="fill:#263238"></path><path d="M354.47,303.52a6.73,6.73,0,0,1,0,1.8,15.44,15.44,0,0,0,.35,4.23,11,11,0,0,0,1.94,3.72,6.88,6.88,0,0,1,1,1.49c-.05.05-.56-.42-1.3-1.26a9.74,9.74,0,0,1-2.16-3.82,12.51,12.51,0,0,1-.21-4.38A6.14,6.14,0,0,1,354.47,303.52Z" style="fill:#263238"></path><path d="M350,304.38a3.06,3.06,0,0,1,.41,1.66c.11,1.06-.1,2.52.14,4a9.11,9.11,0,0,0,1.69,3.55,6.54,6.54,0,0,1,.93,1.41c-.05.05-.53-.39-1.22-1.19a8,8,0,0,1-1.91-3.68,23.21,23.21,0,0,1,0-4.11C350.06,305,349.91,304.4,350,304.38Z" style="fill:#263238"></path><path d="M455.09,221.4c.08.14-1.46,1-2.88,2.59s-2.17,3.17-2.32,3.11a8.67,8.67,0,0,1,5.2-5.7Z" style="fill:#eb996e"></path><path d="M503.94,216.25a10.62,10.62,0,0,0,3-2,2.93,2.93,0,0,0,.33-2.94l-2.72,1a4.21,4.21,0,0,0,2.23-1.72,1.71,1.71,0,0,0-.25-2.48s-4.72,1.89-6.57,2.49c-.26.18-9.87,3.86-10.38,4.4l-9,9.6-13.2-3-1.19,18.07s16.66-1.71,19.46-2.53,10.07-7.76,10.07-7.76l3.29-4.36,5.84-3.24c1-.7,2.06-2,1.15-3.24h0c1.85-1.19.89-3.52.89-3.52Z" style="fill:#455a64"></path><path d="M491.3,231.72a21.58,21.58,0,0,0,2.26-1.68,7.3,7.3,0,0,0,1.78-2.6,7.48,7.48,0,0,0,.46-4l0-.21.19-.06,3.67-1.17a13.58,13.58,0,0,0,1.91-.7,4.17,4.17,0,0,0,1.56-1.26,2.84,2.84,0,0,0,.48-2l.26.2-9,.21.12,0-4.17,3-1.16.8a2.11,2.11,0,0,1-.42.26,8.11,8.11,0,0,1,1.44-1.24c1-.76,2.35-1.82,4.07-3.12l.05,0h.06l8.95-.32H504l0,.21a3.26,3.26,0,0,1-.56,2.46,6.46,6.46,0,0,1-3.74,2.15l-3.67,1.14.15-.27a7.67,7.67,0,0,1-.55,4.21,7.34,7.34,0,0,1-1.95,2.65l-.5.42-.47.32a5.24,5.24,0,0,1-.79.45A2.61,2.61,0,0,1,491.3,231.72Z" style="fill:#263238"></path><path d="M496.55,217.63a7.5,7.5,0,0,1-1.58-1.07l-.21-.16.24-.13c1.19-.67,3-1.58,5.11-2.48,1.93-.84,3.71-1.5,5-1.93a8.82,8.82,0,0,1,2.16-.55,11.14,11.14,0,0,1-2,.9c-1.27.51-3,1.23-4.93,2-2.08.9-3.93,1.75-5.17,2.32l0-.29A7.51,7.51,0,0,1,496.55,217.63Z" style="fill:#263238"></path><path d="M500.6,217.63a11.06,11.06,0,0,1,3.08-1.55A12,12,0,0,1,507,215a11.79,11.79,0,0,1-3.08,1.55A12,12,0,0,1,500.6,217.63Z" style="fill:#263238"></path></g><g id="freepik--character-3--inject-17"><rect x="547.56" y="59.69" width="7.83" height="395.57" style="fill:#e0e0e0"></rect><path d="M510.5,75.8c-4.58,0-6.84-7.71-7.08-8.62l2.89-.79c.77,2.79,2.69,6.55,4.31,6.4a6.71,6.71,0,0,0,3.91-2.41A7.23,7.23,0,0,1,520,67.93h60.28a8.28,8.28,0,0,1,5.67,2.27c1.72,1.61,3.4,2.49,4.72,2.49,2,0,3.39-2.32,3.86-3.89l2.87.88c-.91,3-3.34,6-6.73,6-2.67,0-5.15-1.8-6.77-3.3a5.27,5.27,0,0,0-3.62-1.46H520a4.27,4.27,0,0,0-3.18,1.44,9.35,9.35,0,0,1-5.83,3.4Z" style="fill:#e0e0e0"></path><path d="M550.1,70.17c0,.15-6.93.26-15.46.26s-15.46-.11-15.46-.26,6.92-.26,15.46-.26S550.1,70,550.1,70.17Z" style="fill:#263238"></path><path d="M550,70.1c-.09-.1,0-.41,0-.74s-.26-.59-.2-.72.6,0,.71.64S550,70.23,550,70.1Z" style="fill:#263238"></path><path d="M555.45,90.59c-.14,0-.26-6.84-.26-15.28s.12-15.28.26-15.28.26,6.84.26,15.28S555.6,90.59,555.45,90.59Z" style="fill:#263238"></path><path d="M542.05,175.2H511.37V158.79a10.22,10.22,0,0,1,10.21-10.22h10.26a10.22,10.22,0,0,1,10.21,10.22Zm-26.68-4h22.68V158.79a6.22,6.22,0,0,0-6.21-6.22H521.58a6.22,6.22,0,0,0-6.21,6.22Z" style="fill:#e0e0e0"></path><rect x="501.26" y="169.56" width="50.18" height="62.14" style="fill:#e0e0e0"></rect><rect x="501.26" y="169.56" width="35.45" height="61.58" style="fill:#f5f5f5"></rect><rect x="505.74" y="175.57" width="26.48" height="26.48" style="fill:#fff"></rect><path d="M532.21,202s0-.18,0-.51,0-.84,0-1.44c0-1.29,0-3.11-.06-5.4,0-4.66-.07-11.24-.11-19.12l.22.22-26.47,0c-.06,0,.49-.49.26-.26h0v3.58c0,1.19,0,2.37,0,3.54v6.84c0,4.45,0,8.64,0,12.49l-.22-.22,19.12.11,5.4.06,1.44,0,.51,0a2.49,2.49,0,0,1-.46,0l-1.39,0-5.36.06-19.26.12h-.23V202c0-3.85,0-8,0-12.49v-14h0l.26-.26,26.47,0h.23v.23c-.05,7.94-.09,14.57-.12,19.26,0,2.28,0,4.08-.06,5.36,0,.58,0,1,0,1.39A2.49,2.49,0,0,1,532.21,202Z" style="fill:#263238"></path><path d="M550.58,169.56c0,.14-11,.26-24.59.26s-24.59-.12-24.59-.26,11-.26,24.59-.26S550.58,169.42,550.58,169.56Z" style="fill:#263238"></path><path d="M551.45,231.7c-.15,0-.26-13.81-.26-30.84s.11-30.83.26-30.83.26,13.8.26,30.83S551.59,231.7,551.45,231.7Z" style="fill:#263238"></path><path d="M536.72,231.7c-.15,0-.27-13.81-.27-30.84s.12-30.83.27-30.83.26,13.8.26,30.83S536.86,231.7,536.72,231.7Z" style="fill:#263238"></path><rect x="505.74" y="207.19" width="4.06" height="4.06" style="fill:#455a64"></rect><rect x="511.34" y="207.19" width="4.06" height="4.06" style="fill:#455a64"></rect><rect x="516.94" y="207.19" width="4.06" height="4.06" style="fill:#455a64"></rect><rect x="522.55" y="207.19" width="4.06" height="4.06" style="fill:#455a64"></rect><rect x="528.15" y="207.19" width="4.06" height="4.06" style="fill:#455a64"></rect><rect x="505.74" y="212.58" width="4.06" height="4.06" style="fill:#455a64"></rect><rect x="511.34" y="212.58" width="4.06" height="4.06" style="fill:#455a64"></rect><rect x="516.94" y="212.58" width="4.06" height="4.06" style="fill:#455a64"></rect><rect x="522.55" y="212.58" width="4.06" height="4.06" style="fill:#455a64"></rect><rect x="528.15" y="212.58" width="4.06" height="4.06" style="fill:#455a64"></rect><rect x="505.74" y="217.96" width="4.06" height="4.06" style="fill:#455a64"></rect><rect x="511.34" y="217.96" width="4.06" height="4.06" style="fill:#455a64"></rect><rect x="516.94" y="217.96" width="4.06" height="4.06" style="fill:#455a64"></rect><rect x="522.55" y="217.96" width="9.67" height="4.06" style="fill:#E85745"></rect><path d="M530.88,189.24s-.61-.06-1.72-.15a7.65,7.65,0,0,0-2,.09,4,4,0,0,0-2.23,1.2,3.89,3.89,0,0,0-.72,2.94,10.53,10.53,0,0,1,0,1.86,3.67,3.67,0,0,1-.84,1.85,1.82,1.82,0,0,1-2.11.51,3.11,3.11,0,0,1-1.46-1.7,17.11,17.11,0,0,1-1.06-4.38c-.21-1.53,0-3.06-.16-4.43a4,4,0,0,0-.64-1.86,2.61,2.61,0,0,0-1.45-1.08,1.85,1.85,0,0,0-1.6.4,3.78,3.78,0,0,0-1,1.36c-.47,1-.66,2.14-1.17,3a4.18,4.18,0,0,1-2.05,1.84,4.41,4.41,0,0,1-2,.36,3.64,3.64,0,0,1-1.27-.28,1.21,1.21,0,0,1-.39-.22,6,6,0,0,0,1.67.3,4.48,4.48,0,0,0,1.91-.43,3.91,3.91,0,0,0,1.83-1.74c.46-.85.63-1.94,1.11-3.05a4.15,4.15,0,0,1,1.12-1.54,2.33,2.33,0,0,1,2-.5,3.66,3.66,0,0,1,2.48,3.34c.16,1.49,0,2.94.18,4.43a16.77,16.77,0,0,0,1,4.23,2.7,2.7,0,0,0,1.2,1.45,1.32,1.32,0,0,0,1.56-.38,3.14,3.14,0,0,0,.73-1.6,10.33,10.33,0,0,0,0-1.76,7.18,7.18,0,0,1,.12-1.74,3.09,3.09,0,0,1,.75-1.46,4.32,4.32,0,0,1,2.45-1.25,7,7,0,0,1,2.06,0c.56.07,1,.16,1.27.22S530.89,189.22,530.88,189.24Z" style="fill:#E85745"></path><path d="M583,460H522.31a4.78,4.78,0,0,1,4.77-4.77H578.2A4.78,4.78,0,0,1,583,460Z" style="fill:#e0e0e0"></path><path d="M532.79,464.42a6.78,6.78,0,1,1-6.78-6.78A6.78,6.78,0,0,1,532.79,464.42Z" style="fill:#263238"></path><path d="M589.22,464.42a6.78,6.78,0,1,1-6.78-6.78A6.79,6.79,0,0,1,589.22,464.42Z" style="fill:#263238"></path><circle cx="552.64" cy="464.46" r="6.78" style="fill:#263238"></circle><path d="M646.86,314.2a17.52,17.52,0,0,0-16.54-12.34l-14.27-.23c-20.36-.36-45.71-.8-57.38-.12-11.28.66-17.94,6-21.53,10.38a26.53,26.53,0,0,0-5.18,9.64l0,.16c-8.39,40.37-38.08,147.12-38.67,149.55l8.34-.12c.67-2.68,35.21-135.2,37.82-147.76.32-1.15,4.15-13.28,19.71-14.19,11.38-.66,36.56-.22,56.8.13,5.24.09,10.19.18,14.3.23a9.87,9.87,0,0,1,9.31,7l49,155,8.08-.27Z" style="fill:#455a64"></path><path d="M646.86,314.2s.32.94.91,2.79,1.47,4.59,2.62,8.18c2.3,7.19,5.67,17.78,10,31.37C669,383.75,681.48,423,696.78,471.18l.08.26h-.27l-8.08.27h-.15l-.05-.15c-11.19-35.37-23.93-75.66-37.75-119.37q-5.19-16.4-10.56-33.41a21.43,21.43,0,0,0-1.54-4.13,9.6,9.6,0,0,0-7-4.77,16.17,16.17,0,0,0-2.22-.12l-2.26,0-18.26-.3c-12.27-.19-24.71-.41-37.3-.32-3.14,0-6.3.07-9.46.19a32.52,32.52,0,0,0-9.32,1.34,20.11,20.11,0,0,0-8,4.81,19.77,19.77,0,0,0-5,8v0h0c-1.48,6.57-3.15,13-4.76,19.48s-3.26,12.85-4.88,19.21q-4.9,19.06-9.67,37.6c-6.4,24.69-12.59,48.59-18.52,71.46l-.05.18h-.19l-8.34.11h-.32l.08-.31c11-40.13,21.08-77.34,29.52-110.71,2.09-8.35,4.11-16.45,6-24.31l1.36-5.85q.64-2.9,1.26-5.76l.63-2.84a17.22,17.22,0,0,1,.93-2.76,28.25,28.25,0,0,1,2.73-5,27.83,27.83,0,0,1,7.86-7.74,29.54,29.54,0,0,1,9.78-4.06,53.17,53.17,0,0,1,10.1-1c3.3-.1,6.52-.13,9.66-.15,12.55,0,23.8.16,33.61.33s18.19.28,25,.49a17.53,17.53,0,0,1,8.47,2.93,17.24,17.24,0,0,1,4.66,4.6,17.66,17.66,0,0,1,1.88,3.54c.3.86.44,1.29.44,1.29s-.17-.43-.48-1.27a17.81,17.81,0,0,0-1.91-3.52A17.51,17.51,0,0,0,631.4,302c-6.8-.18-15.19-.25-25-.42s-21.06-.32-33.61-.26c-3.14,0-6.36.06-9.65.16a52.9,52.9,0,0,0-10,1,29,29,0,0,0-9.67,4,27.69,27.69,0,0,0-7.76,7.65,28.2,28.2,0,0,0-2.68,5,18.68,18.68,0,0,0-.92,2.7c-.2.94-.41,1.89-.61,2.84q-.63,2.87-1.26,5.77l-1.36,5.85c-1.83,7.86-3.84,16-5.92,24.32-8.41,33.38-18.47,70.61-29.45,110.73l-.24-.3,8.35-.12-.24.18c5.92-22.87,12.11-46.77,18.51-71.46q4.75-18.53,9.66-37.61,2.41-9.54,4.88-19.2c1.6-6.45,3.27-12.93,4.75-19.47h0a20.24,20.24,0,0,1,5.1-8.21,20.58,20.58,0,0,1,8.24-4.93,33.16,33.16,0,0,1,9.46-1.37c3.17-.12,6.33-.16,9.48-.19,12.6-.08,25,.13,37.31.33l18.25.3,2.27,0a16,16,0,0,1,2.28.13,10.06,10.06,0,0,1,7.35,5,21.88,21.88,0,0,1,1.58,4.23L651,352.05c13.79,43.73,26.51,84,37.67,119.4l-.2-.15,8.08-.26-.19.26L660.17,356.61c-4.28-13.61-7.62-24.21-9.89-31.41L647.72,317C647.14,315.16,646.86,314.2,646.86,314.2Z" style="fill:#263238"></path><path d="M427.28,389.59l-8.7,22.14s-25.12-1.82-27.13,2.12l42,18.82,15-33.94Z" style="fill:#455a64"></path><path d="M432.14,415.55a1.89,1.89,0,0,1,.34,2.51,1.82,1.82,0,0,1-2.48.36,2,2,0,0,1-.35-2.66,1.89,1.89,0,0,1,2.63-.09" style="fill:#e0e0e0"></path><path d="M433.46,432.67l1.2-2.7-41.15-17.46a3.55,3.55,0,0,0-2.37,1.47Z" style="fill:#263238"></path><path d="M418.13,411.7c-.08.21.92.76,1.65,1.87s.9,2.23,1.12,2.23.45-1.33-.47-2.67S418.17,411.49,418.13,411.7Z" style="fill:#263238"></path><path d="M412.86,411.6c-.14.19.61.93.93,2.12s.12,2.21.34,2.29.85-1,.42-2.51S413,411.41,412.86,411.6Z" style="fill:#263238"></path><path d="M408,415.85c.17.13.91-.79.87-2.16s-.81-2.25-1-2.11.18,1,.19,2.13S407.79,415.74,408,415.85Z" style="fill:#263238"></path><path d="M420.69,406.84c0,.23,1.09.36,2.23,1s1.9,1.36,2.08,1.23-.37-1.26-1.72-1.94S420.66,406.63,420.69,406.84Z" style="fill:#263238"></path><path d="M422,401.82a4.41,4.41,0,0,0,2.14.91,10.36,10.36,0,0,0,2.53.29,10,10,0,0,0,1.51-.12,2.66,2.66,0,0,0,.86-.22,1,1,0,0,0,.58-1.06,1.24,1.24,0,0,0-.71-.88,3.63,3.63,0,0,0-.84-.24,9.08,9.08,0,0,0-1.53-.12,8.26,8.26,0,0,0-2.53.44c-1.39.48-2.06,1.11-2,1.18s.83-.33,2.16-.65a9.92,9.92,0,0,1,2.38-.24,7.7,7.7,0,0,1,1.39.16c.5.07.88.24.91.49,0,.09,0,.13-.15.22a2.21,2.21,0,0,1-.63.16,12.65,12.65,0,0,1-3.82,0A14.42,14.42,0,0,0,422,401.82Z" style="fill:#263238"></path><g style="opacity:0.30000000000000004"><path d="M427.28,389.59l-8.7,22.14s-25.12-1.82-27.13,2.12l42,18.82,15-33.94Z"></path></g><path d="M417.12,391.24,401,408.73s-22.76-10.79-26.05-7.84l32.35,32.75,26.24-26.21Z" style="fill:#455a64"></path><path d="M412.26,417.2a1.9,1.9,0,0,1-.6,2.46,1.82,1.82,0,0,1-2.44-.56,2,2,0,0,1,.64-2.61,1.9,1.9,0,0,1,2.48.87" style="fill:#e0e0e0"></path><path d="M407.29,433.64l2.09-2.09-32-31.16a3.51,3.51,0,0,0-2.74.51Z" style="fill:#263238"></path><path d="M400.59,408.54c-.16.17.57,1,.85,2.35s0,2.4.25,2.48.89-1.09.52-2.66S400.7,408.36,400.59,408.54Z" style="fill:#263238"></path><path d="M395.7,406.54c-.19.12.24,1.09.11,2.31s-.69,2.11-.52,2.26,1.18-.66,1.31-2.18S395.86,406.39,395.7,406.54Z" style="fill:#263238"></path><path d="M389.63,408.74c.11.18,1.13-.4,1.59-1.7s.06-2.39-.14-2.32-.2,1-.6,2.06S389.48,408.57,389.63,408.74Z" style="fill:#263238"></path><path d="M404.73,404.94c-.08.21.88.73,1.73,1.69s1.28,2,1.5,1.9.11-1.31-.91-2.43S404.78,404.74,404.73,404.94Z" style="fill:#263238"></path><path d="M407.75,400.72c-.07.06.47.8,1.66,1.63a10.77,10.77,0,0,0,2.26,1.18,11.23,11.23,0,0,0,1.45.44,3.15,3.15,0,0,0,.88.11,1,1,0,0,0,.93-.79,1.24,1.24,0,0,0-.35-1.07,3.15,3.15,0,0,0-.7-.53,8.66,8.66,0,0,0-1.38-.66,8.23,8.23,0,0,0-2.51-.51,3.88,3.88,0,0,0-2.31.38c0,.12.9,0,2.26.17a9.81,9.81,0,0,1,2.29.63,8.67,8.67,0,0,1,1.24.65c.44.26.74.55.68.79s0,.12-.22.15a2.38,2.38,0,0,1-.65-.08,11,11,0,0,1-1.37-.36,13.58,13.58,0,0,1-2.2-1A15.87,15.87,0,0,0,407.75,400.72Z" style="fill:#263238"></path><path d="M406.39,396.22c0,1.53,62-68.43,83.1-71,18-2.17,72.34-1.11,72.34-1.11L526.7,342.92l-58.94,7.14Z" style="fill:#263238"></path><path d="M573.37,324.13,484.14,330a39,39,0,0,0-20.31,8l-62.09,63,21.73,21.41S483.15,374,491.12,368l93,4s27.51-.38,35.36-17.57Z" style="fill:#263238"></path><path d="M543.94,326.05l-.44.06-1.29.11-5,.38L519,327.9l-27,1.86-7.81.53a31.55,31.55,0,0,0-8,1.36,34.11,34.11,0,0,0-14.43,8.75L419.4,383.28c-5.42,5.46-9.82,9.88-12.88,13L403,399.74l-.93.9a1.9,1.9,0,0,1-.33.29,4.19,4.19,0,0,1,.29-.33l.89-.94,3.45-3.57c3-3.1,7.39-7.56,12.77-13.07l42.27-43a34.58,34.58,0,0,1,14.65-8.87,32.64,32.64,0,0,1,8.09-1.37l7.81-.51L519,327.53l18.23-1.13,5-.28,1.3-.06Z" style="fill:#455a64"></path><path d="M631,203.39a9.43,9.43,0,0,1,.87-10.07,1.84,1.84,0,0,0,.52-1.06,1.76,1.76,0,0,0-.44-.91,7,7,0,0,1-1.26-5.35,5.43,5.43,0,0,1,3.53-4.09c-2-2.07-1.46-5.91.84-7.7a7.28,7.28,0,0,1,8.19-.06,4.15,4.15,0,0,1,2.7-4.15,8.21,8.21,0,0,1,5.23,0c2.29.64,4.71,2.11,5.06,4.48.75-1.26,2.49-1.51,3.92-1.21a8,8,0,0,1,6,8.81,7.31,7.31,0,0,1,4.42.3,3.43,3.43,0,0,1,2,3.63c1.15-.93,2.85-.73,4.23-.21a5.28,5.28,0,0,1,2.58,1.8,2.62,2.62,0,0,1,.09,3,4.18,4.18,0,0,1,0,8.33,5.34,5.34,0,0,1-3.62,8.32,1.45,1.45,0,0,1-.06,2.29,2.85,2.85,0,0,1-2.58.24c-1,2.93-2,5.87-3.08,8.8a19,19,0,0,1-2.56,5.42,6.41,6.41,0,0,1-5.08,2.76" style="fill:#263238"></path><path d="M634,194.94c2.85-7,12.9-11.5,19.71-8.37l21.43,12.11-1.37,3.81-21.93,50.62-26.9,4.15,7.65-21.72S624,231,626.16,218.47C627.23,212.26,630.8,202.68,634,194.94Z" style="fill:#ffbe9d"></path><path d="M633.68,206.28a1.6,1.6,0,0,0,.94,2,1.54,1.54,0,0,0,2-.84,1.6,1.6,0,0,0-.94-2A1.54,1.54,0,0,0,633.68,206.28Z" style="fill:#263238"></path><path d="M634.36,200.68c.12.26,1.56-.21,3.19.35s2.55,1.77,2.79,1.63,0-.48-.34-1a4.43,4.43,0,0,0-2.16-1.55,4.18,4.18,0,0,0-2.62,0C634.59,200.26,634.3,200.56,634.36,200.68Z" style="fill:#263238"></path><path d="M647.83,211.83a1.6,1.6,0,0,0,.94,2,1.54,1.54,0,0,0,2-.84,1.61,1.61,0,0,0-.94-2A1.54,1.54,0,0,0,647.83,211.83Z" style="fill:#263238"></path><path d="M650.13,206.73c.12.26,1.56-.2,3.19.35s2.54,1.78,2.79,1.64,0-.48-.35-1a4.36,4.36,0,0,0-2.15-1.56,4.24,4.24,0,0,0-2.62,0C650.36,206.31,650.07,206.61,650.13,206.73Z" style="fill:#263238"></path><path d="M640.26,216.54a11.31,11.31,0,0,0-2.49-1.37c-.4-.19-.77-.4-.74-.71s.33-.73.7-1.15l2.31-2.77c3.24-3.95,5.75-7.26,5.59-7.39s-2.92,3-6.17,6.93l-2.27,2.8a2.61,2.61,0,0,0-.77,1.57,1.11,1.11,0,0,0,.48.84,3,3,0,0,0,.67.34A11.12,11.12,0,0,0,640.26,216.54Z" style="fill:#263238"></path><path d="M632.57,235.54a31.6,31.6,0,0,0,17.26,1.1s-7.06,7.54-18.51,2.44Z" style="fill:#eb996e"></path><path d="M639.61,220.72a3.12,3.12,0,0,1,3-.21,2.82,2.82,0,0,1,1.51,1.63,1.79,1.79,0,0,1-.53,2,2.07,2.07,0,0,1-2.32-.18,6.4,6.4,0,0,1-1.66-1.95,1.78,1.78,0,0,1-.3-.64.57.57,0,0,1,.2-.61" style="fill:#eb996e"></path><path d="M644.68,219.29c-.26-.1-.87,1.67-2.81,2.42s-3.76-.08-3.86.17c-.06.1.3.48,1.09.77a4.64,4.64,0,0,0,3.19,0,4.1,4.1,0,0,0,2.24-2.07C644.85,219.83,644.8,219.32,644.68,219.29Z" style="fill:#263238"></path><path d="M651.62,200.71c0,.5,1.71.84,3.54,1.72s3.21,1.92,3.6,1.61c.18-.15,0-.66-.43-1.31a6.84,6.84,0,0,0-5.44-2.53C652.09,200.25,651.62,200.48,651.62,200.71Z" style="fill:#263238"></path><path d="M636.57,196.14c.16.47,1.41.46,2.77.9s2.41,1.09,2.81.79c.17-.15.12-.58-.26-1.1a4,4,0,0,0-2-1.37,4.05,4.05,0,0,0-2.45,0C636.79,195.59,636.5,195.92,636.57,196.14Z" style="fill:#263238"></path><path d="M643.48,182.91a6.06,6.06,0,0,0,5.64,9.76,2.33,2.33,0,0,0-.93,3,4.37,4.37,0,0,0,2.51,2.2,8.44,8.44,0,0,0,7-.34,6.13,6.13,0,0,0,6.71,7.32,5.63,5.63,0,1,0,7.11,8.11,6.33,6.33,0,0,0,5.47-8.42,3.77,3.77,0,0,0,3.2-2,7.73,7.73,0,0,0,.88-3.82,12.08,12.08,0,0,0-3.33-8.81,8.07,8.07,0,0,0-8.92-1.67,1.77,1.77,0,0,1-1,.3c-.49-.08-.77-.59-1-1-.92-2-1.86-4.16-3.69-5.39a5.92,5.92,0,0,0-7.33.75,6.88,6.88,0,0,0-6-5.61c-3-.14-5.87,2.63-5.45,5.57" style="fill:#263238"></path><path d="M664.89,213.25a26.73,26.73,0,0,0-1,7.54c0,1.08.18,2.33,1.1,2.89a2.27,2.27,0,0,0,2.68-.5A6,6,0,0,0,669,220.6a79.13,79.13,0,0,0,2.32-10.22" style="fill:#263238"></path><path d="M666.83,216c.18,0,6.68-.07,4.72,6s-7.63,2.88-7.59,2.71S666.83,216,666.83,216Z" style="fill:#ffbe9d"></path><path d="M666.55,223s.09.11.24.25a1.17,1.17,0,0,0,.78.27c.72,0,1.59-.88,2-2a3.82,3.82,0,0,0,.19-1.61,1.28,1.28,0,0,0-.53-1.07.56.56,0,0,0-.72.09c-.14.14-.14.28-.17.28s-.1-.15,0-.38a.71.71,0,0,1,.36-.31.87.87,0,0,1,.63,0,1.56,1.56,0,0,1,.8,1.3,3.8,3.8,0,0,1-.17,1.81,2.9,2.9,0,0,1-2.39,2.14,1.17,1.17,0,0,1-.91-.47C666.52,223.16,666.53,223,666.55,223Z" style="fill:#eb996e"></path><path d="M658.4,196.41l-.2,0-.59-.1a9.07,9.07,0,0,1-2.13-.73,6.22,6.22,0,0,1-1.35-.9,4.69,4.69,0,0,1-1.18-1.52,4.6,4.6,0,0,1-.42-2.15,3.37,3.37,0,0,1,1-2.24l.14.23a8.44,8.44,0,0,1-5.31-.16,8.24,8.24,0,0,1-2.55-1.49,5.18,5.18,0,0,1-1-1.16,3,3,0,0,1-.45-1.54,4.11,4.11,0,0,1,.45-1.81,12.94,12.94,0,0,1,.9-1.54,5.81,5.81,0,0,1,1.15-1.32,2,2,0,0,1,1.64-.5l0,.3a5,5,0,0,1-3.06-1.17,5.46,5.46,0,0,1-1.71-2.46,4.53,4.53,0,0,1-.08-2.67,5.34,5.34,0,0,1,3.78-3.73,3.46,3.46,0,0,1,1.15-.11,9.2,9.2,0,0,0-1.12.21,5.24,5.24,0,0,0-2.59,1.73,5,5,0,0,0-1,2,4.28,4.28,0,0,0,.1,2.52,5.25,5.25,0,0,0,1.65,2.32,4.74,4.74,0,0,0,2.89,1.09l0,.31a1.7,1.7,0,0,0-1.4.44,5.78,5.78,0,0,0-1.08,1.26,6.23,6.23,0,0,0-1.29,3.17,3.37,3.37,0,0,0,1.36,2.46,8.16,8.16,0,0,0,7.57,1.63l.55-.17-.41.4a3.12,3.12,0,0,0-.9,2.05,4.31,4.31,0,0,0,1.48,3.51,5.93,5.93,0,0,0,1.29.9,9.44,9.44,0,0,0,2.08.79A6.43,6.43,0,0,1,658.4,196.41Z" style="fill:#fff"></path><path d="M640.67,187.46a1,1,0,0,1-.47.06,3.57,3.57,0,0,1-1.26-.28,3.23,3.23,0,0,1-1.49-1.24,1.6,1.6,0,0,1-.21-1.19,1.21,1.21,0,0,1,.92-.93l0,.32h-.11a5,5,0,0,1-3.75-2,4.52,4.52,0,0,1-.63-1.15,1.3,1.3,0,0,1-.1-.47,9.24,9.24,0,0,0,.91,1.48,5,5,0,0,0,3.58,1.82h.11l1.57.09-1.55.23a.89.89,0,0,0-.67.69,1.35,1.35,0,0,0,.17,1A3.06,3.06,0,0,0,639,187,5.27,5.27,0,0,0,640.67,187.46Z" style="fill:#fff"></path><path d="M616.81,251.8l-46.7,29.93-50.92,7.57.67,11.86s43.13-.22,50.25,0,18.56-11.85,18.56-11.85Z" style="fill:#ffbe9d"></path><path d="M577.5,282.7l-2-3.45c2.92-1.7,3.42-6.08,3-9.31-.2-1.45-.55-2.89-.91-4.41a31.24,31.24,0,0,1-1.19-8.48c.33-8.19,6.14-14,11.76-19.62a81.83,81.83,0,0,0,6.26-6.74c4.22-5.33,6-13.31,1.8-17.42-1.65-1.59-4.17-2.61-6.6-3.6-4-1.61-8.47-3.44-9.73-8.18-1.4-5.29,2.6-10,6.45-12.47,1.37-.86,2.81-1.59,4.2-2.29a25.21,25.21,0,0,0,6.18-3.9c4.72-4.51,5-10.1,5-16.94-.09-9.66-2-13.8-4-18.18-2.43-5.24-4.93-10.66-4.53-24.68l4,.12c-.38,13.07,1.83,17.84,4.16,22.88,2.11,4.58,4.3,9.31,4.4,19.82.08,7.28-.34,14.27-6.2,19.87a28.47,28.47,0,0,1-7.15,4.58c-1.36.69-2.65,1.34-3.86,2.1-2.92,1.86-5.52,5.07-4.72,8.06.74,2.82,3.81,4.06,7.36,5.5,2.79,1.13,5.68,2.3,7.88,4.44,6.09,5.9,3.8,16.14-1.45,22.77a82.82,82.82,0,0,1-6.56,7.09c-5.31,5.31-10.32,10.32-10.59,17a27.4,27.4,0,0,0,1.08,7.38c.37,1.54.75,3.14,1,4.77C583.07,274.05,582.14,280,577.5,282.7Z" style="fill:#e0e0e0"></path><path d="M576.75,281.41l-.5-.87c3.56-2.07,4.23-6.94,3.68-10.81-.22-1.52-.59-3.06-.94-4.55a29.91,29.91,0,0,1-1.15-8.07c.31-7.6,5.91-13.2,11.32-18.62a81.89,81.89,0,0,0,6.37-6.87c4.57-5.77,6.71-14.55,1.67-19.43-1.85-1.79-4.51-2.87-7.08-3.91-3.82-1.55-7.77-3.16-8.84-7.18-1.2-4.5,2.38-8.64,5.8-10.81,1.31-.83,2.72-1.54,4.07-2.23a26.22,26.22,0,0,0,6.55-4.14c5.14-4.92,5.5-11.08,5.43-18-.09-10-2.07-14.27-4.17-18.8-2.35-5.09-4.78-10.34-4.39-24l1,0c-.38,13.42,2,18.57,4.3,23.55,2,4.43,4.16,9,4.26,19.21.08,7.19-.31,13.57-5.74,18.77a27.66,27.66,0,0,1-6.78,4.32,44.08,44.08,0,0,0-4,2.18c-3.39,2.14-6.36,6-5.37,9.71.94,3.54,4.49,5,8.25,6.5,2.65,1.08,5.4,2.19,7.4,4.12,5.46,5.3,3.26,14.65-1.58,20.77a82.68,82.68,0,0,1-6.45,7c-5.52,5.52-10.74,10.74-11,17.95A29.17,29.17,0,0,0,580,265c.36,1.51.73,3.07,1,4.63C581.52,273.78,580.74,279.08,576.75,281.41Z" style="fill:#E85745"></path><path d="M610.48,86.13c-.24-4.67,0-8.76-1.75-13.14-2-4.94-9.71-7.46-18.89-6.09A13.66,13.66,0,0,0,580.39,73c-2,2.92-2.65,6.44-3.06,9.87a164.63,164.63,0,0,0-.7,34.66,11.18,11.18,0,0,0,2.52,4.7c1.28,1.33,3.49,1.36,5.43,1.29l19.57-.72c2-.08,4.21-.26,5.45-1.67a5.84,5.84,0,0,0,1.09-3.61A256.2,256.2,0,0,0,610.48,86.13ZM597.05,72.68a2.8,2.8,0,0,1-3.08.63,2.33,2.33,0,0,1-1.38-2.58A2.54,2.54,0,0,1,595,68.94h0a2.27,2.27,0,0,1,2.08.86A2.46,2.46,0,0,1,597.05,72.68Z" style="fill:#f5f5f5"></path><path d="M610.48,86.13c-.24-4.67,0-8.76-1.75-13.14-2-4.94-9.71-7.46-18.89-6.09A13.66,13.66,0,0,0,580.39,73c-2,2.92-2.65,6.44-3.06,9.87a164.63,164.63,0,0,0-.7,34.66,11.18,11.18,0,0,0,2.52,4.7c1.28,1.33,3.49,1.36,5.43,1.29l19.57-.72c2-.08,4.21-.26,5.45-1.67a5.84,5.84,0,0,0,1.09-3.61A256.2,256.2,0,0,0,610.48,86.13ZM597.05,72.68a2.8,2.8,0,0,1-3.08.63,2.33,2.33,0,0,1-1.38-2.58A2.54,2.54,0,0,1,595,68.94h0a2.27,2.27,0,0,1,2.08.86A2.46,2.46,0,0,1,597.05,72.68Z" style="fill:none"></path><path d="M597.05,72.68a3.16,3.16,0,0,0,.34-1.41,3,3,0,0,0-.54-1.48,2.12,2.12,0,0,0-1.75-.61H595a2.47,2.47,0,0,0-1.73.78,1.86,1.86,0,0,0-.14,2.4,2.31,2.31,0,0,0,1.88,1,3.52,3.52,0,0,0,2-.66s-.09.22-.4.47a2.78,2.78,0,0,1-1.6.56,2.66,2.66,0,0,1-2.27-1.08,2.46,2.46,0,0,1-.5-1.48,2.31,2.31,0,0,1,.65-1.55,2.88,2.88,0,0,1,2.11-.91H595a2.42,2.42,0,0,1,1.26.17,2.1,2.1,0,0,1,.94.66,3,3,0,0,1,.52,1.74C597.66,72.33,597.05,72.73,597.05,72.68Z" style="fill:#263238"></path><path d="M610.48,86.13a1.77,1.77,0,0,1,0,.41c0,.31.05.71.09,1.24.06,1.11.15,2.7.27,4.74.2,4.12.46,10.09.33,17.47q-.06,2.78-.22,5.8c-.07,1-.08,2-.24,3.09a4.29,4.29,0,0,1-1.56,2.87,6.67,6.67,0,0,1-3.2,1.1c-1.14.13-2.28.14-3.43.19l-7.12.28-7.48.28-3.87.15a9.21,9.21,0,0,1-4-.58,4.09,4.09,0,0,1-1.6-1.34,13.07,13.07,0,0,1-1.13-1.72,9.9,9.9,0,0,1-.85-1.9,10.2,10.2,0,0,1-.26-2.08q-.33-4.11-.44-8.33a158.89,158.89,0,0,1,.41-16.45c.2-2.65.46-5.25.75-7.79a31.52,31.52,0,0,1,1.51-7.37,15.49,15.49,0,0,1,3.93-6,13.82,13.82,0,0,1,6-3.17c.53-.14,1.06-.27,1.59-.36l1.59-.19,1.56-.11,1.53,0a25.68,25.68,0,0,1,5.79.65,16,16,0,0,1,4.91,2,9,9,0,0,1,3.23,3.43,20.51,20.51,0,0,1,1.71,7.33c.13,2.06.13,3.66.15,4.75q0,.78,0,1.23a3,3,0,0,1,0,.43,2.93,2.93,0,0,1,0-.42c0-.31-.05-.71-.08-1.24-.06-1.08-.09-2.69-.26-4.74a20.39,20.39,0,0,0-1.76-7.2,8.6,8.6,0,0,0-3.15-3.29,15.78,15.78,0,0,0-4.82-1.91,25.49,25.49,0,0,0-5.7-.6l-1.51,0-1.54.12-1.56.19a14.45,14.45,0,0,0-1.55.36,13.27,13.27,0,0,0-5.77,3.09A15,15,0,0,0,579,76.35a31.15,31.15,0,0,0-1.46,7.27c-.29,2.53-.55,5.13-.74,7.77a160.6,160.6,0,0,0-.4,16.39c.07,2.81.22,5.58.43,8.31a10.84,10.84,0,0,0,.24,2,9.65,9.65,0,0,0,.81,1.8,12.33,12.33,0,0,0,1.08,1.65,3.56,3.56,0,0,0,1.42,1.2,8.64,8.64,0,0,0,3.76.53l3.86-.13,7.48-.27,7.12-.25c1.16,0,2.3-.06,3.39-.18a6.3,6.3,0,0,0,3-1,3.86,3.86,0,0,0,1.4-2.6c.16-1,.18-2,.26-3,.12-2,.2-3.93.25-5.77.18-7.37,0-13.34-.16-17.46-.08-2-.14-3.64-.18-4.75q0-.78,0-1.23A2.21,2.21,0,0,1,610.48,86.13Z" style="fill:#263238"></path><path d="M605.08,118.86l-20.57.52c-1.85.05-3.44-.78-3.55-1.86l-.63-16.63h28v16C608.35,117.94,606.91,118.82,605.08,118.86Z" style="fill:#E85745"></path><path d="M584.91,72.47a23.74,23.74,0,0,0-2.51,5.19,31.91,31.91,0,0,0-1.2,6.15c-.24,2.35-.34,5-.46,7.71-.21,5.48-.2,10.45-.14,14,0,1.73.06,3.16.08,4.26a8.59,8.59,0,0,1,0,1.56,8.11,8.11,0,0,1-.18-1.55c-.08-1-.17-2.46-.25-4.26-.15-3.6-.22-8.58,0-14.07.12-2.75.23-5.36.51-7.74a29,29,0,0,1,1.32-6.21,16.73,16.73,0,0,1,1.89-3.85,8.94,8.94,0,0,1,.69-.94C584.8,72.56,584.9,72.46,584.91,72.47Z" style="fill:#263238"></path><path d="M607.65,98.64a17.41,17.41,0,0,1,0-3c.06-1.81.13-4.32.12-7.08s-.11-5.28-.19-7.09a17.71,17.71,0,0,1-.05-3,15.42,15.42,0,0,1,.42,2.92c.18,1.82.33,4.33.34,7.11s-.12,5.3-.28,7.12A15,15,0,0,1,607.65,98.64Z" style="fill:#263238"></path><path d="M604.4,118.92a21.77,21.77,0,0,1-3.5.32c-2.17.14-5.16.28-8.47.41l-4.67.16a13.6,13.6,0,0,1-3.84-.27,5.09,5.09,0,0,1-2.3-1.25,1.75,1.75,0,0,1-.54-.8s.22.27.68.65a5.31,5.31,0,0,0,2.24,1,14.35,14.35,0,0,0,3.74.15l4.67-.2c3.31-.13,6.3-.22,8.48-.25A24,24,0,0,1,604.4,118.92Z" style="fill:#263238"></path><path d="M591,121.56c-.15,0-.24-.47-.21-1s.16-1,.31-1,.23.46.21,1S591.11,121.56,591,121.56Z" style="fill:#263238"></path><path d="M592,121c-.15,0-.26-.41-.26-.92s.11-.92.26-.92.26.41.26.92S592.1,121,592,121Z" style="fill:#263238"></path><path d="M603.42,121.28c-.14,0-.33-.46-.41-1.07s0-1.11.11-1.13.32.46.41,1.06S603.56,121.26,603.42,121.28Z" style="fill:#263238"></path><path d="M604.52,121.46c-.14,0-.37-.48-.5-1.14s-.14-1.21,0-1.24.37.48.5,1.14S604.66,121.43,604.52,121.46Z" style="fill:#263238"></path><rect x="586.31" y="103.84" width="17.52" height="5.85" style="fill:#fff"></rect><path d="M600.93,106.7a62.5,62.5,0,0,1-11.39,0,62.5,62.5,0,0,1,11.39,0Z" style="fill:#263238"></path><path d="M604.8,96.41a29.63,29.63,0,0,1-3,2.1c-1.85,1.26-4.4,3-7.16,5s-5.2,3.94-6.95,5.34a28.68,28.68,0,0,1-2.89,2.21,4.08,4.08,0,0,1,.67-.71c.46-.44,1.13-1,2-1.78,1.7-1.48,4.11-3.44,6.88-5.48s5.36-3.75,7.27-4.93c1-.59,1.74-1.06,2.29-1.36A3.41,3.41,0,0,1,604.8,96.41Z" style="fill:#fff"></path><path d="M597.17,97.48a28.21,28.21,0,0,1-4.24,3.18,26.85,26.85,0,0,1-4.53,2.75,27.45,27.45,0,0,1,4.24-3.18A26.85,26.85,0,0,1,597.17,97.48Z" style="fill:#fff"></path><path d="M505.51,291.8s4.28-1.16,6.63-1.9c1.48-.47,6.31-1.69,8.32-.85s4.08,3.95,4.08,3.95l-1.61,7.66L512,311.5s-2.16,1.41-3.75.47-2.44.75-3.67-.75c-.84-1-3.89-5.77-5.69-8.58a5.38,5.38,0,0,1-.59-4.52l1.22-3.83a8.3,8.3,0,0,1,5.43-5.47,2.45,2.45,0,0,1,1.79-.09C508,289.52,505.51,291.8,505.51,291.8Z" style="fill:#ffbe9d"></path><path d="M514.32,295.28a5.65,5.65,0,0,0-3.83-.76,5.41,5.41,0,0,0-4.78,4.85c0,.12,0,.24,0,.36a6.16,6.16,0,0,0,1.46,4,4.39,4.39,0,0,0,2.88,1.61,5.27,5.27,0,0,0,3.06-.88,7.15,7.15,0,0,0,2.75-2.76A5,5,0,0,0,514.32,295.28Z" style="fill:#e0e0e0"></path><path d="M506.47,302.79a7.26,7.26,0,0,1-.49-1.42,8,8,0,0,1-.34-1.76,4.05,4.05,0,0,1,.5-2.34,6.2,6.2,0,0,1,2-2.12,11.14,11.14,0,0,1,3-1.35,1.76,1.76,0,0,0,1.18-.91,1.29,1.29,0,0,0-.48-1.35,3.36,3.36,0,0,0-1.61-.62,6.9,6.9,0,0,0-1.85.25,6.07,6.07,0,0,0-3.3,1.56,11.44,11.44,0,0,0-2,2.89,13.35,13.35,0,0,0-1,3,7.08,7.08,0,0,0,.15,2.73,16.36,16.36,0,0,0,1.27,3.85,7.78,7.78,0,0,0,.79,1.26s-.12-.07-.31-.25a5,5,0,0,1-.66-.92,14.58,14.58,0,0,1-1.45-3.86,7,7,0,0,1-.21-2.89,13,13,0,0,1,1-3.14,11.45,11.45,0,0,1,2-3,4,4,0,0,1,.75-.66,5,5,0,0,1,.89-.47,14.06,14.06,0,0,1,1.91-.59,7,7,0,0,1,2-.25,3.88,3.88,0,0,1,1.89.74,1.77,1.77,0,0,1,.62,1.91,2.21,2.21,0,0,1-1.49,1.19,11,11,0,0,0-2.93,1.26,5.94,5.94,0,0,0-1.9,1.94,3.81,3.81,0,0,0-.53,2.15,8.58,8.58,0,0,0,.24,1.72A8.4,8.4,0,0,1,506.47,302.79Z" style="fill:#eb996e"></path><path d="M511.89,306.79a24.72,24.72,0,0,1-2.33-1.1,23.37,23.37,0,0,1-2.43-.87,4,4,0,0,1,2.63.39A4,4,0,0,1,511.89,306.79Z" style="fill:#eb996e"></path><path d="M516.61,301.56a10.16,10.16,0,0,1-2.53,2.61c-1.52,1.28-2.49,2.55-2.61,2.47a6.86,6.86,0,0,1,2.27-2.86A16.75,16.75,0,0,1,516.61,301.56Z" style="fill:#eb996e"></path><path d="M518.57,293.62a20.38,20.38,0,0,0-1.66,3.91,19.4,19.4,0,0,0-.26,4.24,7.72,7.72,0,0,1,1.92-8.15Z" style="fill:#eb996e"></path><path d="M566.61,282.25c-.24,0-.42,4.78-.5,7.73a2.25,2.25,0,0,0,2.25,2.32h5.85l5-4.11a2.24,2.24,0,0,0,.56-2.79L575.87,278l-5.76,3.69Z" style="fill:#f5f5f5"></path><path d="M566.61,282.25a6,6,0,0,1,.9-.21l2.58-.45-.05,0,5.72-3.75.19-.13.12.21c.83,1.57,1.75,3.28,2.72,5.11.25.45.49.92.74,1.39l.38.71a3.18,3.18,0,0,1,.32.83,2.54,2.54,0,0,1-.33,1.78,2.39,2.39,0,0,1-.61.69l-.66.54-4.26,3.5-.07.06h-5.36c-.28,0-.52,0-.83,0a2.64,2.64,0,0,1-.83-.24,2.51,2.51,0,0,1-1.14-1.16,2.79,2.79,0,0,1-.21-1.48c0-.91.08-1.75.11-2.52.17-3.06.38-4.92.57-4.86a6,6,0,0,0-.12,1.28c0,.84-.08,2.06-.12,3.59,0,.77,0,1.62-.06,2.52a2.55,2.55,0,0,0,.2,1.29,2.1,2.1,0,0,0,1,.95,3,3,0,0,0,1.47.19h5.27l-.16.05,4.25-3.51a5.35,5.35,0,0,0,1.16-1.1,2,2,0,0,0,.26-1.41,5.77,5.77,0,0,0-.64-1.4c-.24-.48-.49-.94-.73-1.4-1-1.84-1.85-3.56-2.67-5.14l.31.08-5.8,3.63,0,0h0l-2.6.32A3.55,3.55,0,0,1,566.61,282.25Z" style="fill:#263238"></path><polygon points="619.17 243.62 587.05 264.32 592.28 273.59 619.17 243.62" style="fill:#E85745"></polygon><path d="M655,246.59s-7.56,1-14.85,1.87c-4.54.56-8.26-1.82-10.29-5.93h-.67l-10.05,1.09c-5.59,4.34-28.33,24.77-30.29,30.32-2.18,6.19-1.83,19.68-1.83,19.68L569.6,316s-4.75,3.66,2,13.5S599.08,355,599.08,355s14.62,5.46,18.41,2,29.17-49.89,29.17-49.89,11.68-21.2,14.28-27.25C666.3,267.32,665,254.05,655,246.59Z" style="fill:#E85745"></path><path d="M614.89,250.09a8.82,8.82,0,0,1-1.07,1l-3,2.5c-2.58,2.09-6.17,5-10.15,8.1-2,1.58-3.92,3-5.57,4.47a29.08,29.08,0,0,0-4,4.15,21,21,0,0,0-2.64,4.62s0-.13.07-.37a9.15,9.15,0,0,1,.34-1,14.74,14.74,0,0,1,1.94-3.45,27.69,27.69,0,0,1,4-4.29c1.65-1.47,3.57-2.94,5.55-4.52,4-3.14,7.61-6,10.25-8l3.14-2.37A7.44,7.44,0,0,1,614.89,250.09Z" style="fill:#263238"></path><path d="M627.38,275.27c-.77,1-19.86,32.78-19.86,32.78l-56,11.33,3.85,10.56s56.7,1.85,61.58-.46,7.89-7,16.28-20.31c8.71-13.82,13-19.87,13-19.87Z" style="fill:#ffbe9d"></path><path d="M609.81,304.24c3.78,2.82,13.44,9.62,17.57,12.58,1.21.87,3.42-.51,4.23-1.77l11.77-18.69c.74-1.14.06-2.9-1-3.73l-17.47-13.42c-1.27-1-4,1-4.76,2.38L609,300.5A3.14,3.14,0,0,0,609.81,304.24Z" style="fill:#263238"></path><path d="M635.28,287a4.69,4.69,0,0,1-.57.93c-.48.66-1.05,1.47-1.72,2.43-1.46,2-3.47,4.87-5.65,8s-4.12,6-5.53,8.11L620.14,309a5.19,5.19,0,0,1-.67.87,4.46,4.46,0,0,1,.5-1c.35-.61.87-1.48,1.54-2.55,1.32-2.14,3.21-5.05,5.4-8.2s4.25-5.95,5.78-7.94c.77-1,1.4-1.79,1.85-2.34S635.25,287,635.28,287Z" style="fill:#455a64"></path><path d="M623.13,276.6,647,292.3s13-18,13.64-26.27-1.47-12.85-9-14.64-15.6,6.57-18.59,10.66C629.6,266.78,623.13,276.6,623.13,276.6Z" style="fill:#E85745"></path><path d="M623.13,276.6a1.14,1.14,0,0,1,.15-.24c.12-.19.28-.43.47-.74l1.89-2.84,7.06-10.53a35.54,35.54,0,0,1,5.94-6.42,24.45,24.45,0,0,1,4-2.82,16.4,16.4,0,0,1,4.84-1.9l1.35-.18h1.38c.46,0,.92.13,1.38.2s.9.23,1.35.35a12.17,12.17,0,0,1,5,2.75,9.86,9.86,0,0,1,2.71,5.24,23.23,23.23,0,0,1,.28,6.07,22.94,22.94,0,0,1-2.33,7.92c-1.12,2.45-2.37,4.76-3.64,7-2.58,4.41-5.23,8.43-7.78,12l-.13.17-.18-.11L629.56,281l-4.79-3.22-1.24-.85a2.62,2.62,0,0,1-.4-.3l.47.28,1.31.83,4.89,3.15,17.3,11.25-.3.06c2.52-3.57,5.15-7.59,7.7-12,1.26-2.2,2.5-4.51,3.61-6.94a22.49,22.49,0,0,0,2.28-7.74,23.32,23.32,0,0,0-.26-5.92,9.38,9.38,0,0,0-2.57-5,11.43,11.43,0,0,0-4.79-2.64c-.44-.12-.87-.26-1.31-.35s-.87-.15-1.31-.2h-1.31l-1.29.17a16.12,16.12,0,0,0-4.7,1.82,25.84,25.84,0,0,0-3.94,2.76,35.55,35.55,0,0,0-5.91,6.3l-7.16,10.32c-.85,1.2-1.51,2.15-2,2.83l-.53.74A1.93,1.93,0,0,1,623.13,276.6Z" style="fill:#263238"></path><path d="M551.51,319.38l-4.7,1.79c-.64.54-15.88,15.28-15.88,15.28l-2.29,10.45a2.07,2.07,0,0,0,2.55-.12,4.73,4.73,0,0,0,1.85-3l1.43-4.6,4-4.28-3.29,6.57-1.6,8a2,2,0,0,0,2,.88c1.14-.29,1.49-2.13,1.49-2.13s1.09,1.49,2.24,1,4.91-6.23,4.91-6.23,2.19-4.85,2.17-4.55-1.36,4.6-1.36,4.6-3,4.8-2.39,5.51a2,2,0,0,0,1.51.78c.3,0,4.2-5.68,4.93-6.6s6.35-10.56,6.35-10.56l1.81-5.73Z" style="fill:#ffbe9d"></path><path d="M543.11,336.69a5.68,5.68,0,0,1-.94,1.72,43.45,43.45,0,0,0-2.4,4c-.76,1.63-1.25,3.22-1.74,4.33a5.07,5.07,0,0,1-.95,1.71,13.87,13.87,0,0,1,.61-1.84,40.43,40.43,0,0,1,1.61-4.43,26,26,0,0,1,2.57-4A10.48,10.48,0,0,1,543.11,336.69Z" style="fill:#eb996e"></path><path d="M508.11,383.65,455.7,413.92a8.41,8.41,0,0,1-11.49-3.08h0a8.4,8.4,0,0,1,3.08-11.49l52.41-30.27a8.42,8.42,0,0,1,11.49,3.08h0A8.4,8.4,0,0,1,508.11,383.65Z" style="fill:#455a64"></path><path d="M508.11,383.65s.53-.31,1.39-1.07A8.47,8.47,0,0,0,512,378.3a8.26,8.26,0,0,0,0-3.58,8.26,8.26,0,0,0-6-6.33,8.29,8.29,0,0,0-5.37.44l-53.21,30.74a8.19,8.19,0,0,0-4.08,7.14,8.19,8.19,0,0,0,4,6.94,8.16,8.16,0,0,0,7.74.3c2.36-1.29,4.67-2.67,6.93-3.95l24-13.77L502.15,387l4.41-2.49,1.15-.64.4-.2-.37.25-1.13.68-4.36,2.58-16.1,9.38-23.9,13.87c-2.27,1.3-4.53,2.66-6.95,4a8.67,8.67,0,0,1-8.22-.32A8.77,8.77,0,0,1,444,411a8.86,8.86,0,0,1-1.17-4.28,8.7,8.7,0,0,1,4.33-7.59l29.31-16.9,12.81-7.37,5.8-3.33,2.74-1.57c.9-.5,1.74-1,2.66-1.46a8.55,8.55,0,0,1,11.79,6.18,8.46,8.46,0,0,1-2.7,8,7.15,7.15,0,0,1-1.07.78A3.05,3.05,0,0,1,508.11,383.65Z" style="fill:#263238"></path><path d="M674.32,206.36c-5.73,6-8.37,14.28-9.85,22.44-.57,3.16-1,6.48,0,9.53s3.81,5.73,7,5.57,5.75-3.09,7.64-5.82c8.09-11.73,13.25-23.1,17.59-36.67l.19-.37C689.51,197.33,680,200.36,674.32,206.36Z" style="fill:#455a64"></path><path d="M708,185.56a5.22,5.22,0,0,0-7,2.49L620.69,360.71a9.92,9.92,0,0,1-9,5.62c-20.43-.09-84.48-.38-97.31-.56a6.68,6.68,0,0,0-3.19.77,9.59,9.59,0,0,0-4.11,5.56,28.73,28.73,0,0,0-1,7c-.3,5.41-.6,11.05-.9,16.64A9.77,9.77,0,0,0,515,406h32.13c-2.59,0,60.39,1.19,86.68,1.68a16.62,16.62,0,0,0,15.64-10.18L735.5,204.7a5.23,5.23,0,0,0-2.46-6.81Z" style="fill:#455a64"></path><path d="M708,185.56l1.63.78,4.77,2.32,18.37,9a5.5,5.5,0,0,1,2.58,2.25,5.34,5.34,0,0,1,.67,3.54,6.69,6.69,0,0,1-.6,1.8l-.78,1.75c-.53,1.18-1.06,2.39-1.61,3.63l-7.16,16.09L708.34,266c-13,29.14-28.48,63.9-45.74,102.62l-13.29,29.77A16.88,16.88,0,0,1,636,407.84a32.38,32.38,0,0,1-4.29.06l-4.29-.08-8.64-.16L583.4,407l-18.1-.35-9.14-.18-4.6-.09-2.3-.05-1.16,0h-1c-.1.11-.06-1,0-.53l.08.52H515a10.31,10.31,0,0,1-4.69-1.17,10,10,0,0,1-5.26-7.72,33.88,33.88,0,0,1,.1-4.74c.08-1.57.17-3.13.25-4.69q.25-4.68.51-9.32c.17-3.07.43-6.31,2-9.07a8.59,8.59,0,0,1,3.31-3.32,6.75,6.75,0,0,1,2.28-.68c.8-.09,1.55,0,2.32,0l9.11.06,69.74.42,16.46.1a9.81,9.81,0,0,0,7.22-2.61c2-1.76,2.73-4.42,3.92-6.76L635.2,329l23.21-49.85C672.61,248.64,684.1,224,692,206.94c2-4.25,3.75-8,5.29-11.32l2.12-4.53.92-2a15.87,15.87,0,0,1,.89-1.75,5.2,5.2,0,0,1,2.54-2,5.09,5.09,0,0,1,2.33-.31,4.94,4.94,0,0,1,1.4.33l.44.2a5.73,5.73,0,0,0-1.84-.48,5.19,5.19,0,0,0-2.31.33,5.12,5.12,0,0,0-2.47,2,15,15,0,0,0-.87,1.75l-.92,2-2.09,4.55c-1.52,3.28-3.28,7.07-5.25,11.34l-33.48,72.24c-7.08,15.24-14.83,31.94-23.15,49.87q-6.24,13.46-12.9,27.79c-.55,1.19-1.11,2.39-1.66,3.59a10.37,10.37,0,0,1-2.35,3.3,10.27,10.27,0,0,1-7.54,2.75l-16.46-.09-69.75-.39-9.11,0c-.76,0-1.54-.05-2.26,0a6.53,6.53,0,0,0-2.1.63,8.06,8.06,0,0,0-3.09,3.12c-1.53,2.63-1.8,5.77-2,8.84s-.33,6.2-.5,9.32c-.08,1.56-.17,3.12-.25,4.68a36.51,36.51,0,0,0-.11,4.66,9.51,9.51,0,0,0,5,7.32,9.68,9.68,0,0,0,4.45,1.11h32.13v.52c-.08.42-.07-.67,0-.51h1l1.15,0,2.3.05,4.6.09,9.14.18,18.1.35,35.33.68,8.64.16,4.29.08a31.32,31.32,0,0,0,4.23-.06,16.36,16.36,0,0,0,13-9.19q6.81-15.22,13.3-29.74L708,265.82c6.51-14.55,12.39-27.71,17.56-39.25q3.87-8.65,7.2-16.07l1.62-3.62c.26-.59.52-1.18.78-1.75a6.39,6.39,0,0,0,.59-1.74,5.14,5.14,0,0,0-.63-3.41,5.29,5.29,0,0,0-2.49-2.17l-18.32-9.06-4.75-2.37C708.51,185.85,708,185.56,708,185.56Z" style="fill:#263238"></path><path d="M720.08,191.52s-.11.27-.34.8-.6,1.33-1.06,2.35c-.94,2.06-2.33,5.09-4.1,9l-15.18,33c-12.87,27.87-30.64,66.36-50.26,108.87l-9.6,20.76-8,20.18-.06.16h-.17l-89.57-.09-26.05-.08-7,0-1.8,0-.61,0s.21,0,.61,0l1.8,0,7,0,26.05-.07,89.57-.09-.24.16c2.59-6.52,5.28-13.27,8-20.2l9.6-20.77,50.4-108.81c6.47-13.91,11.71-25.16,15.33-33l4.19-8.95,1.11-2.32C719.94,191.78,720.08,191.52,720.08,191.52Z" style="fill:#263238"></path><g style="opacity:0.30000000000000004"><path d="M629.49,341.77s20.7-2.82,23.78.79,11.47,20.66,11.47,20.66l5-8.91-6.14-19.41-15.41-1.7H633.47Z"></path></g><g style="opacity:0.30000000000000004"><polygon points="557.23 365.85 547.11 406.01 542.08 406.01 551.47 365.85 557.23 365.85"></polygon></g><path d="M701.76,187.3c.13.06-4.55,10.3-10.44,22.87s-10.79,22.71-10.92,22.65S685,222.52,690.84,210,701.63,187.24,701.76,187.3Z" style="fill:#263238"></path><path d="M670.2,342.22c-2.42-7.28-9.51-12.24-17.64-12.35-4.37-.05-9.64-.14-15.23-.23-21.72-.35-48.75-.79-61.2-.11-12,.66-19.14,6-23,10.37a26,26,0,0,0-5.53,9.64l0,.16c-9,40.38-27.1,119.12-27.73,121.56l9,.12c.7-2.58,23.94-107.44,26.73-120,.35-1.15,4.43-13.28,21-14.19,12.13-.67,39-.23,60.58.12,5.59.1,10.87.18,15.26.24a10.47,10.47,0,0,1,9.94,6.95l42,126.74h9Z" style="fill:#455a64"></path><path d="M670.2,342.22s.28.76.79,2.27,1.27,3.75,2.27,6.68l8.65,25.68,31.68,94.33.08.26H704.2l0-.14c-10.52-31.7-22.62-68.21-35.82-108l-5-15.09-1.28-3.81a9.42,9.42,0,0,0-2-3.33,10.56,10.56,0,0,0-7.07-3.21l-33.26-.52c-11.27-.14-22.71-.29-34.29-.12-2.9.05-5.8.11-8.71.27a30,30,0,0,0-8.48,1.71A20.69,20.69,0,0,0,556,350.93a4.72,4.72,0,0,0-.18.53v0c-9.38,42.11-18.41,82.63-26.74,120l0,.19h-.2l-9-.12h-.3l.07-.3,23.44-102.59q1.32-5.78,2.61-11.39.65-2.81,1.27-5.57c.23-.92.37-1.84.68-2.75a23,23,0,0,1,1.07-2.61,28.83,28.83,0,0,1,6.56-8.78,30.06,30.06,0,0,1,9-5.6,36,36,0,0,1,9.89-2.39c3.33-.3,6.58-.34,9.76-.42,6.37-.11,12.45-.09,18.23-.06,11.56.08,21.93.26,31,.42l12.57.21,5.52.09a25.52,25.52,0,0,1,5,.41,18.81,18.81,0,0,1,4.24,1.34,19.09,19.09,0,0,1,3.38,1.95,18,18,0,0,1,5.36,6.16c.26.56.5,1,.65,1.41.29.79.43,1.19.43,1.19l-.47-1.17c-.15-.39-.4-.84-.66-1.4a19.06,19.06,0,0,0-1.14-1.82,17.87,17.87,0,0,0-4.24-4.27,18.93,18.93,0,0,0-3.37-1.92,18.53,18.53,0,0,0-4.21-1.31,25.18,25.18,0,0,0-4.94-.39l-5.52-.07-12.57-.18c-9.05-.13-19.42-.29-31-.35-5.78,0-11.86,0-18.22.1-3.18.07-6.44.13-9.73.42a36.19,36.19,0,0,0-9.79,2.38,29.74,29.74,0,0,0-8.85,5.55,28.41,28.41,0,0,0-6.47,8.66,23.87,23.87,0,0,0-1,2.57c-.28.86-.44,1.81-.66,2.72q-.63,2.76-1.27,5.57-1.27,5.61-2.59,11.4c-7,30.87-14.9,65.4-23.38,102.61l-.23-.31,9,.12-.24.18c8.31-37.36,17.33-77.88,26.7-120h0c.06-.18.12-.37.19-.55A21.23,21.23,0,0,1,568,338.67a31,31,0,0,1,8.65-1.74c2.91-.16,5.82-.22,8.72-.27,11.59-.16,23,0,34.31.13l33.28.53a11,11,0,0,1,7.4,3.37,9.83,9.83,0,0,1,2.16,3.5c.43,1.28.86,2.55,1.28,3.82q2.52,7.62,5,15.09l35.74,108.08-.19-.14h9l-.18.25c-13.29-39.79-24.06-72.06-31.52-94.38-3.71-11.16-6.59-19.83-8.55-25.71l-2.21-6.7C670.44,343,670.2,342.22,670.2,342.22Z" style="fill:#263238"></path></g></svg>