<svg xmlns="http://www.w3.org/2000/svg" viewBox="0 0 750 500"><g id="freepik--character-2--inject-5"><path d="M590.49,161.06s-5.16-10.47-5.18-12.66l1.42-13s.9-.66,1.88,1.56a7.29,7.29,0,0,1,.28,4.55l1.08,2.89,1.48-2.28,1.54-8.53s1-6.15,1.94-5.53,1.28,2.39.86,5.05-.95,6-.95,6-.09,1,.85-.73,1.84-9.2,2.2-10.21.44-3.65,2-3.54.71,3.5.71,3.5l-1.19,11s1.31-4.43,1.56-5.19.62-3.16,1.09-4.48,1.23-2,1.9-2a1.26,1.26,0,0,1,1.21,1.23l-2,9.4a46.25,46.25,0,0,0-1,4.56c.09.26,1.61-1.82,1.61-1.82l1.13-3.06s.89-4.32,2-4.47,1.22.72,1.22.72l-1.71,7.9-3.27,9L600,157.7a31.49,31.49,0,0,1-.32,3.74C599.46,161.68,590.49,161.06,590.49,161.06Z" style="fill:#aa6550"></path><path d="M591.28,142.82a18.43,18.43,0,0,1-3.75,4.9,18.43,18.43,0,0,1,3.75-4.9Z" style="fill:#724940"></path><path d="M601.78,145.84a25.52,25.52,0,0,0-4.38,1.82,26.91,26.91,0,0,0-3.67,3,8.14,8.14,0,0,1,3.4-3.45A8,8,0,0,1,601.78,145.84Z" style="fill:#724940"></path><path d="M608.5,150.2c-.07-.06.54-.79,1.31-2.07a18.87,18.87,0,0,0,2.64-11.24c-.12-1.5-.34-2.41-.26-2.44a7,7,0,0,1,.63,2.4,16.62,16.62,0,0,1-.3,6,16.43,16.43,0,0,1-2.4,5.48A7.41,7.41,0,0,1,608.5,150.2Z" style="fill:#263238"></path><path d="M614.67,150.4a28.53,28.53,0,0,0,2-8,29.61,29.61,0,0,0-.82-8.21,8,8,0,0,1,.84,2.32,18.66,18.66,0,0,1,.5,5.93,19.24,19.24,0,0,1-1.37,5.8A7.52,7.52,0,0,1,614.67,150.4Z" style="fill:#263238"></path><path d="M587.79,127.4a3.56,3.56,0,0,1,.13-1.63,9.85,9.85,0,0,1,4.59-6.22A3.63,3.63,0,0,1,594,119a12.77,12.77,0,0,0-6.23,8.45Z" style="fill:#263238"></path><path d="M583.75,125.73a11.63,11.63,0,0,1,7.39-8.39,24.34,24.34,0,0,0-4.38,3.59A24.11,24.11,0,0,0,583.75,125.73Z" style="fill:#263238"></path><path d="M525.21,171.16c-.09,0-.08-1.07-.37-2.76a19.28,19.28,0,0,0-2.24-6.24,10.63,10.63,0,0,0-4.55-4.64,6.37,6.37,0,0,0-2.68-.42,1.57,1.57,0,0,1,.74-.2,4.52,4.52,0,0,1,2.07.28,10.18,10.18,0,0,1,4.87,4.72,17,17,0,0,1,2.15,6.45A8.18,8.18,0,0,1,525.21,171.16Z" style="fill:#263238"></path><polygon points="596.51 419.93 599.19 459.63 582.05 461.74 573.85 421.19 596.51 419.93" style="fill:#aa6550"></polygon><path d="M599,454.39l.16,1.13s20.33,5.17,21,8.8l-38.34,4.94-1.12-12.83A22.09,22.09,0,0,0,599,454.39Z" style="fill:#455a64"></path><g style="opacity:0.6000000000000001"><path d="M585.12,460a1.58,1.58,0,0,0-.86,1.93,1.51,1.51,0,0,0,1.9.86,1.67,1.67,0,0,0,.9-2,1.57,1.57,0,0,0-2.08-.68" style="fill:#fff"></path></g><g style="opacity:0.6000000000000001"><path d="M581.83,469.26l-.27-3.09,36.84-3.6s1.8.52,1.77,1.75Z" style="fill:#fff"></path></g><path d="M599.29,455.61c0,.19-.91.4-1.75,1.12s-1.24,1.57-1.42,1.52,0-1.17,1-2S599.3,455.44,599.29,455.61Z" style="fill:#263238"></path><path d="M603.52,456.76c.07.17-.7.6-1.24,1.47s-.61,1.74-.79,1.75-.45-1,.24-2.1S603.49,456.58,603.52,456.76Z" style="fill:#263238"></path><path d="M606.42,461.28c-.16.06-.54-.84-.19-1.93s1.17-1.61,1.27-1.46-.37.76-.65,1.66S606.61,461.23,606.42,461.28Z" style="fill:#263238"></path><polygon points="513.7 421.69 498.7 458.55 482.38 452.93 492.77 412.89 513.7 421.69" style="fill:#aa6550"></polygon><path d="M500.81,453.75l-.36,1.09s16,13.55,15.05,17.12l-36.62-12.37,4.61-12A22.11,22.11,0,0,0,500.81,453.75Z" style="fill:#455a64"></path><g style="opacity:0.6000000000000001"><path d="M485.88,452.73a1.57,1.57,0,0,0-1.61,1.35,1.52,1.52,0,0,0,1.33,1.61,1.66,1.66,0,0,0,1.7-1.45c0-.77-.8-1.64-1.57-1.51" style="fill:#fff"></path></g><g style="opacity:0.6000000000000001"><path d="M478.88,459.59,480,456.7l34.69,12.92s1.39,1.26.82,2.34Z" style="fill:#fff"></path></g><path d="M500.55,455c-.07.18-1,0-2.06.24s-1.8.87-1.94.74.47-1.07,1.78-1.38S500.64,454.83,500.55,455Z" style="fill:#263238"></path><path d="M503.85,457.87c0,.19-.89.23-1.76.78s-1.3,1.29-1.48,1.22.05-1.11,1.14-1.78S503.91,457.7,503.85,457.87Z" style="fill:#263238"></path><path d="M504.48,463.2c-.17,0-.12-1,.67-1.82s1.76-.93,1.78-.75-.67.52-1.31,1.21S504.66,463.25,504.48,463.2Z" style="fill:#263238"></path><path d="M527.29,100.31c-.42-2.74-2.89-4.85-5.59-5.51a14.32,14.32,0,0,0-8.16.83,19.44,19.44,0,0,0-7.85,4.88,11.88,11.88,0,0,0-3.32,8.46c.16,2.92,1.61,5.84.8,8.64-.62,2.13-2.42,3.69-4.22,5s-3.77,2.49-5,4.34-1.42,4.61.22,6.1c1.47,1.32,4.09,1.47,4.7,3.35.38,1.16-.26,2.37-.62,3.54a9.25,9.25,0,0,0,1.19,7.44,15.78,15.78,0,0,0,5.7,5.15c3.95,2.23,8.87,3.27,13,1.49a12.5,12.5,0,0,0,5.14-4.22,19.93,19.93,0,0,0,3.41-10.53,59.7,59.7,0,0,0-.72-11.16" style="fill:#263238"></path><path d="M528.74,144.68a11.48,11.48,0,0,1-14.54-11.33c.08-3.33,1.58-6.72.55-9.89-.71-2.17-2.53-3.87-3.15-6.07-.91-3.29,1.08-6.61,3-9.45a22.28,22.28,0,0,1,4.16-5,7.5,7.5,0,0,1,6.09-1.8" style="fill:#263238"></path><path d="M559.44,101.39c-.19,2.51,1.47,4.75,3.14,6.64s3.54,3.85,3.9,6.34c.64,4.42-3.69,8.52-2.8,12.9.48,2.34,2.4,4.23,2.74,6.6s-.89,4.53-2.41,6.27-3.38,3.2-4.73,5.09c0,0-2.8,4.59-11.43,1.65" style="fill:#263238"></path><path d="M520.82,105.23c-.07-2.28,2-4,4.16-4.88s4.48-1.15,6.37-2.42c1.67-1.13,2.8-2.88,4.22-4.32a14,14,0,0,1,23.6,6.44c.81,3.24.26,7.08-2.3,9.24-3,2.5-7.37,1.94-11.18,1.17s-8.11-1.55-11.28.68c-1.92,1.35-3,3.54-4.19,5.57s-2.64,4.1-4.85,4.86-5.23-.55-5.31-2.89" style="fill:#263238"></path><path d="M529.8,105.7a3.8,3.8,0,0,0-3.4,3.87h0l2.27,51.5c.1,6.09,9,9.5,15.5,9.35h0c6.58-.15,6.79-3.38,6.87-9.16.14-9.67.13-13.3.13-13.24s8.31-1.4,10-12.25c.84-5.39.55-14.23.08-21.46-.42-6.5-4.75-14.47-11.23-13.77Z" style="fill:#aa6550"></path><path d="M556.69,121.34a1.4,1.4,0,0,1-1.34,1.4,1.33,1.33,0,0,1-1.44-1.25,1.4,1.4,0,0,1,1.34-1.41A1.34,1.34,0,0,1,556.69,121.34Z" style="fill:#263238"></path><path d="M559.35,118.21c-.17.18-1.22-.59-2.72-.59s-2.59.76-2.75.58.09-.41.57-.76a3.73,3.73,0,0,1,2.2-.68,3.65,3.65,0,0,1,2.17.69C559.28,117.8,559.44,118.13,559.35,118.21Z" style="fill:#263238"></path><path d="M542.1,121.71a1.39,1.39,0,0,1-1.34,1.41,1.34,1.34,0,0,1-1.44-1.25,1.4,1.4,0,0,1,1.34-1.41A1.34,1.34,0,0,1,542.1,121.71Z" style="fill:#263238"></path><path d="M544.65,119.23c-.18.18-1.23-.6-2.73-.59s-2.59.76-2.75.57.09-.41.57-.75a3.8,3.8,0,0,1,2.2-.69,3.56,3.56,0,0,1,2.17.7C544.57,118.82,544.73,119.14,544.65,119.23Z" style="fill:#263238"></path><path d="M550.1,130.31a9.9,9.9,0,0,1,2.43-.44c.38,0,.74-.12.81-.38a1.9,1.9,0,0,0-.26-1.13q-.54-1.4-1.14-2.91c-1.58-4.14-2.72-7.54-2.55-7.6s1.58,3.24,3.16,7.38l1.09,2.92a2.27,2.27,0,0,1,.2,1.5,1,1,0,0,1-.63.56,2.3,2.3,0,0,1-.65.09A9.22,9.22,0,0,1,550.1,130.31Z" style="fill:#263238"></path><path d="M551.17,148a27.63,27.63,0,0,1-14.53-3.85s3.68,7.45,14.53,6.41Z" style="fill:#724940"></path><path d="M545.31,116.6c-.14.41-1.64.22-3.39.44s-3.18.7-3.41.33c-.11-.17.14-.56.71-1a5.64,5.64,0,0,1,2.53-.89,5.79,5.79,0,0,1,2.66.3C545.05,116.09,545.38,116.41,545.31,116.6Z" style="fill:#263238"></path><path d="M558.79,114.58c-.26.35-1.29,0-2.53,0s-2.29.23-2.53-.12c-.11-.17.06-.51.51-.84a3.68,3.68,0,0,1,4.09.12C558.76,114.07,558.91,114.42,558.79,114.58Z" style="fill:#263238"></path><path d="M522.23,141.37a9.64,9.64,0,0,0,11.46-10.65c-.34-2.66-1.78-5.37-.85-7.89,1.22-3.33,5.89-4.36,7.13-7.68.72-1.94.07-4.2.89-6.09s2.64-2.81,4.46-3.47,3.78-1.11,5.31-2.3,2.49-3.44,1.5-5.11a102.73,102.73,0,0,0-23.69,5.76c-1.77.66-3.63,1.45-4.67,3s-1.06,3.81-1,5.81q.69,14.6,1.37,29.2" style="fill:#263238"></path><path d="M516.5,106.14a.78.78,0,0,0-.18.44,1.7,1.7,0,0,0,.42,1.31,2.71,2.71,0,0,0,1.94,1,6.25,6.25,0,0,0,2.75-.83,7.63,7.63,0,0,1,3.16-.93,16.79,16.79,0,0,1,3.83.35,27.18,27.18,0,0,0,4.33.56,6.25,6.25,0,0,0,4.44-1.62,12.85,12.85,0,0,0,2.55-4,20.9,20.9,0,0,1,2.07-3.72,6.07,6.07,0,0,1,6.26-2.28,6.38,6.38,0,0,1,3.78,2.79,12.48,12.48,0,0,1,.79,1.61,1.19,1.19,0,0,0-.08-.47,6.12,6.12,0,0,0-.53-1.25,6.21,6.21,0,0,0-7.34-3,6.48,6.48,0,0,0-3.28,2.28,19.82,19.82,0,0,0-2.16,3.8A12.28,12.28,0,0,1,536.8,106a5.68,5.68,0,0,1-4,1.49,27.61,27.61,0,0,1-4.24-.52,16.86,16.86,0,0,0-4-.31,8,8,0,0,0-3.31,1,6.25,6.25,0,0,1-2.56.86,2.54,2.54,0,0,1-1.79-.81,1.61,1.61,0,0,1-.47-1.15C516.45,106.3,516.53,106.15,516.5,106.14Z" style="fill:#455a64"></path><path d="M515.28,107.17c.14.12,1.8-2.64,5.14-4.52a21.2,21.2,0,0,1,6.49-2.16,5.08,5.08,0,0,0-2.06,0,13.53,13.53,0,0,0-8.51,4.88A5.2,5.2,0,0,0,515.28,107.17Z" style="fill:#E85745"></path><path d="M527.45,99.93s0,.12.15.32a3.24,3.24,0,0,0,.7.74,4.79,4.79,0,0,0,3.59.8,9.11,9.11,0,0,0,4.69-2.8c1.47-1.43,2.83-3.27,4.82-4.4a8.58,8.58,0,0,1,6.23-.8A8.22,8.22,0,0,1,552,96.61a9,9,0,0,1,1.66,3.15c.23.82.28,1.3.33,1.3s0-.12,0-.35a5.41,5.41,0,0,0-.14-1,8.59,8.59,0,0,0-6.07-6.41,9,9,0,0,0-6.63.81c-2.13,1.22-3.49,3.11-4.91,4.52a8.82,8.82,0,0,1-4.4,2.77,4.59,4.59,0,0,1-3.39-.59A6.56,6.56,0,0,1,527.45,99.93Z" style="fill:#455a64"></path><path d="M528,146a1.42,1.42,0,0,1-.48.13,8.2,8.2,0,0,1-1.43.15,11.07,11.07,0,0,1-5.13-1.16,11.85,11.85,0,0,1-5.46-5.52,13.68,13.68,0,0,1-.93-9.45,28,28,0,0,0,1-4.75,7.53,7.53,0,0,0-1.08-4.21,15.24,15.24,0,0,1-1.67-3.85,9,9,0,0,1-.11-3.67,9.64,9.64,0,0,1,2.24-4.75,7.3,7.3,0,0,1,1-1c.26-.2.41-.29.42-.27s-.51.46-1.27,1.42a10,10,0,0,0-2,4.66,8.66,8.66,0,0,0,.17,3.48,15.43,15.43,0,0,0,1.69,3.69,10.57,10.57,0,0,1,.91,2.11,7.48,7.48,0,0,1,.27,2.41,27.42,27.42,0,0,1-1,4.87,13.22,13.22,0,0,0,.83,9A11.6,11.6,0,0,0,526,146.05C527.26,146.09,527.94,146,528,146Z" style="fill:#455a64"></path><path d="M508.74,98a3.63,3.63,0,0,1,1.85-1,7.27,7.27,0,0,1,8.59,3.93,3.65,3.65,0,0,1,.48,2c-.1,0-.27-.75-.89-1.82a7.51,7.51,0,0,0-8.07-3.7C509.49,97.72,508.79,98.1,508.74,98Z" style="fill:#455a64"></path><path d="M516.76,104.85s0-.25,0-.71a3.63,3.63,0,0,0-.48-1.9,5.27,5.27,0,0,0-2.25-2.11,4.69,4.69,0,0,0-4-.1,7.3,7.3,0,0,0-3.55,3.39,10.91,10.91,0,0,0-1.1,5.62,37.34,37.34,0,0,0,1,6.43,27,27,0,0,1,.83,7.06,21.24,21.24,0,0,1-1.83,6.89,57.88,57.88,0,0,0-2.36,6.09,13.35,13.35,0,0,0-.49,5.76,17,17,0,0,0,1.5,4.85,38.23,38.23,0,0,0,4,6.29l1.22,1.64a2.52,2.52,0,0,1,.4.59,2.91,2.91,0,0,1-.5-.51c-.31-.35-.76-.87-1.32-1.56a35.15,35.15,0,0,1-4.19-6.25,17.35,17.35,0,0,1-1.62-5,13.74,13.74,0,0,1,.45-6,58.65,58.65,0,0,1,2.34-6.17,21,21,0,0,0,1.78-6.68c.2-4.76-1.73-9.16-1.8-13.44a11.38,11.38,0,0,1,1.23-5.89A7.72,7.72,0,0,1,510,99.61a5,5,0,0,1,4.29.2,5.33,5.33,0,0,1,2.31,2.31,3.6,3.6,0,0,1,.39,2A2.27,2.27,0,0,1,516.76,104.85Z" style="fill:#455a64"></path><path d="M550.8,135a7.51,7.51,0,0,1-.93,1.83,2.44,2.44,0,0,1-1.73,1,2.19,2.19,0,0,1-1.84-1,3.38,3.38,0,0,1-.51-2.09c0-.66.33-1.45,1-1.52a1.58,1.58,0,0,1,.8.17l3.45,1.4" style="fill:#724940"></path><path d="M549.42,137.8a5,5,0,0,1-1.84-.23,2.63,2.63,0,0,1-1.39-1.26,2.81,2.81,0,0,1-.05-2.26,2.17,2.17,0,0,1,.31-.51c.13-.15.11-.14.26-.12s.36.15.55.22l.56.23c.74.3,1.41.56,2,.77a6.74,6.74,0,0,0,1.87.57,5.9,5.9,0,0,0-1.7-1l-1.92-.89-.56-.25c-.2-.08-.36-.17-.63-.26a.81.81,0,0,0-.51,0,1,1,0,0,0-.38.3,2.94,2.94,0,0,0-.39.66,3.23,3.23,0,0,0,.1,2.76,3,3,0,0,0,1.76,1.41,2.75,2.75,0,0,0,1.49.06C549.27,138,549.43,137.83,549.42,137.8Z" style="fill:#263238"></path><path d="M593.14,362.1l-26.09-86.3V241l-42.82-6-3.34,14a58.39,58.39,0,0,0-8.7,18.73,18,18,0,0,0-.47,3.09c-1.42,6.34-1,20.58,1.39,25.28,3.42,6.77-5.52,56.6-5.52,56.6s-7.36,20.74-12,33.45S485.16,442,485.16,442l18.72,4.6,29.81-74.49s5.56-23.24,10-42.34c10.4,13.83,20.61,26.92,20.61,26.92a169.85,169.85,0,0,1,2.5,30c0,17.39,12.24,60.14,12.24,60.14l19.14-2.24Z" style="fill:#263238"></path><path d="M551.17,339.59s-.13-.09-.34-.32-.56-.59-.92-1c-.79-.87-1.9-2.15-3.2-3.79-2.63-3.27-6-8-9.54-13.3s-6.53-10.29-8.69-13.87L526,303.05l-.66-1.17a2,2,0,0,1-.21-.43s.12.12.3.37l.74,1.12,2.67,4.18c2.24,3.54,5.3,8.45,8.81,13.78s6.85,10.05,9.4,13.36c1.26,1.67,2.33,3,3.06,3.89.34.42.61.77.85,1.05S551.19,339.58,551.17,339.59Z" style="fill:#455a64"></path><path d="M528.74,154.64l22.43,3.47,4,3.47s14.12,27.49,14.38,33c.28,6.14-3,16.67-3,16.67l3.23,24.29c.48,2.78-1.33,5.46-2.55,5.46l-38.75-5.19c-5.05-1-7.13-3.64-6.82-6.56l.58-5.41-16.55-55.43c-1,3.27.55-8.84,7.94-11.55C516.75,155.74,524,153.64,528.74,154.64Z" style="fill:#E85745"></path><path d="M553.1,159.94s6.91,5.32,13.44,11.38,24,18.15,24,18.15l-1.76-29.65,13.31-1.8s8.47,33.39,4.39,42.1-8.19,11.62-21.75,7.27-17.43-6.3-17.43-6.3Z" style="fill:#E85745"></path><path d="M556.57,163.7a2.34,2.34,0,0,1,.31.39l.8,1.18c.69,1,1.67,2.54,2.84,4.43a70.48,70.48,0,0,1,7.53,15.61,34.57,34.57,0,0,1,1.16,17.22,23.26,23.26,0,0,1-1.63,5,13.59,13.59,0,0,1-.64,1.28c-.16.28-.25.43-.27.42s.26-.64.73-1.78a26.65,26.65,0,0,0,1.45-5,35.6,35.6,0,0,0-1.3-17,76.36,76.36,0,0,0-7.34-15.57l-2.7-4.51c-.29-.49-.52-.9-.72-1.23S556.55,163.71,556.57,163.7Z" style="fill:#263238"></path><rect x="477.44" y="265.76" width="53.55" height="28.85" rx="4.52" transform="translate(43.63 -67.08) rotate(7.95)" style="fill:#455a64"></rect><path d="M531.12,281.11a3.77,3.77,0,0,1-.55,0l-1.56-.17-5.72-.74-18.86-2.62-18.84-2.77-5.7-.9-1.55-.27a2.41,2.41,0,0,1-.53-.12,2.08,2.08,0,0,1,.55,0l1.56.17,5.72.74L504.5,277l18.84,2.77,5.7.9,1.55.27A1.73,1.73,0,0,1,531.12,281.11Z" style="fill:#263238"></path><path d="M517.84,156.89s7,9.15,7.36,17.54-12.53,58.71-12.53,58.71l-11.32,45.93-14.1-5.2s3.28-32.7,3.91-36.76c1.3-8.46,6.87-25,7.64-34.49s4.29-27.9,6-32.19S506.65,156.65,517.84,156.89Z" style="fill:#E85745"></path><path d="M524.63,179.07a2,2,0,0,1,0,.49c0,.38-.09.84-.16,1.4-.17,1.21-.44,3-.83,5.12-.77,4.31-2,10.23-3.47,16.74s-2.91,12.38-4,16.62c-.55,2.11-1,3.82-1.35,5-.16.54-.29,1-.4,1.35a2.26,2.26,0,0,1-.17.46,1.35,1.35,0,0,1,.07-.48c.08-.38.18-.83.31-1.38.29-1.27.69-3,1.18-5,1-4.33,2.36-10.18,3.85-16.65s2.76-12.41,3.62-16.69c.41-2.09.74-3.8,1-5.08.1-.55.19-1,.26-1.39S524.61,179.06,524.63,179.07Z" style="fill:#263238"></path><path d="M499.61,278.42,498.08,292l-12.38,11.3a4,4,0,0,1-.48-3.11c.57-1.41-2.82,1.84-2.82,1.84v7.77s-2.12.85-2.83-1-1.13-8.48-1.13-8.48l1-.7a3.62,3.62,0,0,1-1-3.11,11.07,11.07,0,0,1-.71-5.65,17.05,17.05,0,0,1,1.28-4.95l10.13-11.31Z" style="fill:#aa6550"></path><g style="opacity:0.30000000000000004"><path d="M525.63,235.07c2.23-2.23,2.69-5.61,3-8.74L532,196.45c.69-6.21,1.34-12.72-1-18.51a3.13,3.13,0,0,0-1.77-2.05,2.29,2.29,0,0,0-2.33,1c-.54.71-2,1.74-2.27,2.6-2.27,8.88-3.25,17.62-5.51,26.5-.6,2.35-1.38,2.26-.86,4.62.75,3.44,4,13.3,4,13.3s-.46,3.57-.59,5.67a5.41,5.41,0,0,0,4,5.53"></path></g><path d="M523.55,184a3,3,0,0,1-.76.55,18.14,18.14,0,0,1-2.28,1.22,8.16,8.16,0,0,1-3.79.77,9.23,9.23,0,0,1-4.4-1.73,31.75,31.75,0,0,0-3.91-2.46,5.66,5.66,0,0,0-3.56-.58,4,4,0,0,0-2.18,1.09c-.4.42-.54.74-.58.72a1.75,1.75,0,0,1,.43-.86,4.09,4.09,0,0,1,2.25-1.32,6,6,0,0,1,3.84.51,28.35,28.35,0,0,1,4,2.46,9.06,9.06,0,0,0,4.15,1.69,8.12,8.12,0,0,0,3.62-.63C522.35,184.64,523.51,183.93,523.55,184Z" style="fill:#fafafa"></path><path d="M567.26,183s0,.14-.2.37a5.72,5.72,0,0,1-.76,1,8.63,8.63,0,0,1-3.91,2.21,14.1,14.1,0,0,1-6.66.09,66.41,66.41,0,0,1-7.74-2.5,25.66,25.66,0,0,0-14.38-1,36.47,36.47,0,0,0-5.76,1.92s.11-.1.35-.24.6-.34,1.09-.56a22.13,22.13,0,0,1,4.23-1.48,24.72,24.72,0,0,1,6.63-.71,25.46,25.46,0,0,1,8,1.54,75.08,75.08,0,0,0,7.68,2.52,14.1,14.1,0,0,0,6.47,0,8.69,8.69,0,0,0,3.86-2C566.91,183.43,567.21,182.92,567.26,183Z" style="fill:#fafafa"></path><path d="M575.5,178.5a5.33,5.33,0,0,1,.11,2.1,12.91,12.91,0,0,1-4.65,8.81,5.25,5.25,0,0,1-1.79,1.1c0-.07.62-.51,1.55-1.38a14.67,14.67,0,0,0,3-3.9,14.83,14.83,0,0,0,1.53-4.67A19.45,19.45,0,0,1,575.5,178.5Z" style="fill:#fafafa"></path><g style="opacity:0.30000000000000004"><path d="M561.09,170.43c10.6,10.63,19.71,22.46,23.61,37l-15.56-5.48s1.61-5.27.45-9.5.26-7.22-8.5-22"></path></g><path d="M493.4,291.44a21.1,21.1,0,0,1-3.66,4.55,20.74,20.74,0,0,1-4.44,3.77c-.1-.11,1.85-1.84,4.07-4.14S493.28,291.35,493.4,291.44Z" style="fill:#724940"></path><path d="M484.71,293.91a19.19,19.19,0,0,1-2.95,3.4,19.45,19.45,0,0,1-3.32,3,38.67,38.67,0,0,1,6.27-6.43Z" style="fill:#724940"></path><path d="M483,290.82a32.44,32.44,0,0,1-2.34,2.78,30.1,30.1,0,0,1-2.26,2.85,8.31,8.31,0,0,1,1.86-3.18A8.21,8.21,0,0,1,483,290.82Z" style="fill:#724940"></path><path d="M481.61,287.62a12.43,12.43,0,0,1-1.84,2.24,13.38,13.38,0,0,1-1.95,2.14,6.12,6.12,0,0,1,1.56-2.48A6.06,6.06,0,0,1,481.61,287.62Z" style="fill:#724940"></path><path d="M528.05,163.63c-1.17-3.61-4.91-7.7-8.63-8.43l-3,.77c4,2.12,6.57,4.89,7.67,9.31s.94,9,.77,13.57q-1.77,48.17-3.55,96.34c.69.85,2.18.53,2.84-.35a5.56,5.56,0,0,0,.78-3.15q1.38-33.45,2.75-66.88l1.23-29.92C529.07,171.11,529.21,167.23,528.05,163.63Z" style="fill:#455a64"></path></g><g id="freepik--character-1--inject-5"><path d="M248.43,234.23s-40.91-30.84-43.89-32.68c-5.26-3.24-10.66-45.59-10.66-45.59l13-4.62,10.41,35.57,39,24.16Z" style="fill:#ffbe9d"></path><path d="M203.94,156.26s3.29-2,4.05-4.62,1.6-18,1.6-18-2-.52-3.21,2.4a64.74,64.74,0,0,0-2,7.07s-2.07-8.77-2.79-11.78c-.62-2.64-1.73-6.6-3.15-6.65s-.31,5.09-.28,7.34.15,5.45.15,5.45c.07.15-2.71-10.37-4.21-13-1.1-1.9-3.31-.21-2.5,2.17,0,0-1.84-2-2.32.1s2.34,12.3,1.61,12.38-3.49-8.07-4.82-8.43c-.75-.2-1.26.85-.66,3s5.27,17.92,6.43,19.92a5.45,5.45,0,0,0,2.31,2.44Z" style="fill:#ffbe9d"></path><path d="M194.8,146.88a4,4,0,0,1,1.82.32,11.13,11.13,0,0,1,3.89,2.26l-.47.13.06-.18a12.72,12.72,0,0,1,2.25-4c.76-.91,1.35-1.35,1.4-1.3s-2,2.18-3.1,5.52l-.05.17-.15.43-.33-.3C197.57,147.59,194.73,147.05,194.8,146.88Z" style="fill:#eb996e"></path><path d="M191.48,126.24a42.25,42.25,0,0,1,2.26,6.38c1.11,3.58,1.57,6.6,1.41,6.63s-.87-2.9-2-6.46S191.32,126.29,191.48,126.24Z" style="fill:#eb996e"></path><path d="M268.44,214.36,221,188.21a3.07,3.07,0,0,0-1.08-2.64,1.3,1.3,0,0,0-2,.36l-16.12,8.32a2.9,2.9,0,0,0-1,4.27c2.89,4,8.31,11.42,11.31,13.91s41,27.74,41,27.74Z" style="fill:#E85745"></path><path d="M178.78,150.31a2.7,2.7,0,0,1-.37-.7,17.26,17.26,0,0,1-.73-2,24.79,24.79,0,0,1,0-14.11,15.76,15.76,0,0,1,.74-2c.2-.47.33-.72.37-.71s-.32,1.09-.76,2.84a29.61,29.61,0,0,0-.85,7,29.12,29.12,0,0,0,.86,7C178.47,149.23,178.87,150.28,178.78,150.31Z" style="fill:#263238"></path><path d="M172.43,143.19a2.37,2.37,0,0,1-.24-.77,19.35,19.35,0,0,1-.36-2.14,26.52,26.52,0,0,1,2.29-14,18,18,0,0,1,1-1.92,2.85,2.85,0,0,1,.46-.65c.08,0-.46,1-1.14,2.72a30.66,30.66,0,0,0-2.26,13.83C172.32,142.06,172.51,143.17,172.43,143.19Z" style="fill:#263238"></path><path d="M215.44,147.91a18.88,18.88,0,0,1-.26-2.8,50.57,50.57,0,0,0-1-6.68,52.35,52.35,0,0,0-1.9-6.47,20.76,20.76,0,0,1-.95-2.65,11.58,11.58,0,0,1,1.29,2.51,37.4,37.4,0,0,1,2.07,6.5,36.89,36.89,0,0,1,.86,6.77A11.69,11.69,0,0,1,215.44,147.91Z" style="fill:#263238"></path><path d="M221.6,150.13c-.09,0,0-1.37-.14-3.56a38.8,38.8,0,0,0-1.4-8.41,39.49,39.49,0,0,0-3.23-7.89c-1.05-1.92-1.83-3-1.76-3.09a3.35,3.35,0,0,1,.62.73,25.06,25.06,0,0,1,1.46,2.18,33.49,33.49,0,0,1,4.68,16.47,23.23,23.23,0,0,1-.09,2.62A3.47,3.47,0,0,1,221.6,150.13Z" style="fill:#263238"></path><path d="M287.76,263.46,274.4,327.17l27.07-.3,11.46-56.54,24-.27a3.58,3.58,0,0,0,3.54-3.62h0a3.59,3.59,0,0,0-3.62-3.54Z" style="fill:#455a64"></path><path d="M109.93,418.15l-3.4,22.09s-23.59,4-24.61,8l42.6,8.11,6.69-34.2Z" style="fill:#E85745"></path><g style="opacity:0.30000000000000004"><path d="M109.93,418.15l-3.4,22.09s-23.59,4-24.61,8l42.6,8.11,6.69-34.2Z"></path></g><path d="M120.06,440.91a1.76,1.76,0,0,1,.82,2.21,1.69,1.69,0,0,1-2.18.84,1.88,1.88,0,0,1-.87-2.35,1.78,1.78,0,0,1,2.38-.62" style="fill:#263238"></path><path d="M124.52,456.35l.64-3.32L84,446.4s-2.05.46-2.09,1.84Z" style="fill:#263238"></path><path d="M105.89,439.9c0,.2,1,.5,1.88,1.36s1.28,1.84,1.48,1.8.13-1.31-1-2.34S105.88,439.7,105.89,439.9Z" style="fill:#263238"></path><path d="M101.07,440.89c-.09.2.74.72,1.28,1.73s.57,2,.78,2,.56-1.12-.13-2.37S101.11,440.7,101.07,440.89Z" style="fill:#263238"></path><path d="M97.51,445.76c.18.08.67-.91.35-2.15s-1.2-1.88-1.32-1.72.36.88.61,1.9S97.31,445.7,97.51,445.76Z" style="fill:#263238"></path><path d="M107.22,435c0,.2,1.06.1,2.22.4s2,.85,2.15.69-.6-1.06-2-1.4S107.15,434.76,107.22,435Z" style="fill:#263238"></path><path d="M124.3,419.37l-3.39,22.09s-23.59,4-24.61,8l42.59,8.11,6.7-34.21Z" style="fill:#E85745"></path><path d="M134.44,442.12a1.78,1.78,0,0,1,.82,2.22,1.71,1.71,0,0,1-2.19.84,1.88,1.88,0,0,1-.86-2.35,1.77,1.77,0,0,1,2.38-.62" style="fill:#263238"></path><path d="M138.89,457.57l.65-3.32-41.15-6.63s-2,.46-2.09,1.84Z" style="fill:#263238"></path><path d="M120.27,441.11c0,.21,1,.51,1.88,1.37s1.28,1.84,1.48,1.8.13-1.31-1-2.34S120.26,440.91,120.27,441.11Z" style="fill:#263238"></path><path d="M115.45,442.11c-.09.19.74.72,1.28,1.73s.57,2,.78,2,.56-1.12-.13-2.37S115.49,441.91,115.45,442.11Z" style="fill:#263238"></path><path d="M111.89,447c.18.08.67-.91.35-2.15s-1.2-1.88-1.32-1.72.36.88.61,1.9S111.69,446.92,111.89,447Z" style="fill:#263238"></path><path d="M121.6,436.17c.05.2,1.06.1,2.22.4s2,.85,2.15.69-.6-1.07-2-1.4S121.53,436,121.6,436.17Z" style="fill:#263238"></path><path d="M224.32,304.66s-77.46,1.27-84.4,1c-14.7-.67-20.43,9.26-22.44,23.33-.62,4.31-11.7,98.79-11.7,98.79l26.82,5.55,18.2-85.9s71.59,2.57,78.35,3.72c8.24,1.4,19.61,5.79,25.8,1s10-29.49,10-29.49Z" style="fill:#263238"></path><path d="M230.32,304.64s-69.41,1.13-76.35.82c-14.7-.66-20.43,9.26-22.44,23.33-.62,4.31-11.7,101.65-11.7,101.65L146,436.27l18.87-89s71.59,2.57,78.35,3.72c8.24,1.4,19.61,5.79,25.8,1s10-29.5,10-29.5Z" style="fill:#263238"></path><path d="M159.34,305.51H159l-1.09,0c-.95,0-2.35,0-4.15.22a46.57,46.57,0,0,0-6.46,1.12,31.24,31.24,0,0,0-3.9,1.25,16.7,16.7,0,0,0-4,2.18,8.11,8.11,0,0,0-1.7,1.71,17.59,17.59,0,0,0-1.3,2.21,28,28,0,0,0-1.91,5.1,97.13,97.13,0,0,0-2.07,11.93c-1.17,8.47-2.35,17.79-3.54,27.59-2.36,19.6-4.41,37.36-6.09,50.19-.83,6.41-1.55,11.6-2.06,15.18l-.63,4.12-.17,1.06a1.54,1.54,0,0,1-.08.37,1.71,1.71,0,0,1,0-.37l.12-1.08c.12-1,.3-2.36.52-4.13.46-3.62,1.11-8.81,1.91-15.2,1.52-12.87,3.62-30.61,5.93-50.2,1.19-9.8,2.39-19.13,3.58-27.6a95.44,95.44,0,0,1,2.14-12,26.76,26.76,0,0,1,2-5.17,15.19,15.19,0,0,1,1.34-2.25,8,8,0,0,1,1.79-1.78,16.51,16.51,0,0,1,4.1-2.19,28.62,28.62,0,0,1,3.95-1.23,43,43,0,0,1,6.52-1A28.55,28.55,0,0,1,159.34,305.51Z" style="fill:#455a64"></path><path d="M257.71,215.65l27.5-9.71s13.75,7.07,15,8.6,9.95,9.25,9.82,20.13c-.08,6.79-5.95,31.31-5.95,31.31l-21.76,38.2L275.6,323l-32.51.08-12.77-18.46s-1.61-3.83,2.63-9.72,10.88-15.85,10.88-15.85,2-11.94,4.07-16.35,1.62-6.24,1.62-6.24-2.07-12.18,0-17.89S257.71,215.65,257.71,215.65Z" style="fill:#E85745"></path><path d="M292.55,212.16c7.87-.91,9.38,4.12,14.06,10.51,9.22,12.59,21.34,36.15,22.25,38.78,1.28,3.71,2.62,4.53,3.06,6.37.84,3.48.52,8.78.12,12.55a4.84,4.84,0,0,1-5,4.32l-18.9.22a3.92,3.92,0,0,1-4-4l.29-9.84s-10.79-8.85-13.34-15-11.81-11.92-11.81-11.92-7.32-11.3-2.19-20.63C278.69,220.53,289.69,212.49,292.55,212.16Z" style="fill:#E85745"></path><path d="M284,247.12a4.58,4.58,0,0,1,.83.87l2.09,2.5c1.75,2.12,4.14,5.08,6.75,8.36a101.51,101.51,0,0,0,6.85,8.25,26.3,26.3,0,0,0,3.46,2.74,4.24,4.24,0,0,1-1.09-.51,14.7,14.7,0,0,1-2.62-2c-2.08-1.86-4.37-4.93-7-8.19s-5-6.28-6.64-8.46l-2-2.61A6,6,0,0,1,284,247.12Z" style="fill:#263238"></path><g style="opacity:0.30000000000000004"><path d="M302.31,269c-3,1.88-7,1.51-10-.34a15.75,15.75,0,0,1-6.15-8.28,46.47,46.47,0,0,1-2-10.29c0-.32-.05-.7.21-.89s1.29,0,1.58.39c5.74,6.77,9.58,13.3,16.3,19.41"></path></g><path d="M318.24,265.07c0,.09-.91,0-2.36.05a15.06,15.06,0,0,0-5.44,1.39,15.23,15.23,0,0,0-4.54,3.31c-1,1.06-1.46,1.84-1.54,1.8a6.13,6.13,0,0,1,1.26-2,13.55,13.55,0,0,1,10.25-4.83A6.23,6.23,0,0,1,318.24,265.07Z" style="fill:#263238"></path><path d="M308.82,255.81a25.86,25.86,0,0,0-3.57,7,26.41,26.41,0,0,0-.79,7.87,7.11,7.11,0,0,1-.38-2.33,17.26,17.26,0,0,1,3.16-10.83A6.8,6.8,0,0,1,308.82,255.81Z" style="fill:#263238"></path><path d="M243.83,279.07a4.29,4.29,0,0,1,.07-.65c.06-.41.15-1,.29-1.82.27-1.58.68-3.87,1.36-6.66a79.81,79.81,0,0,1,3-9.64,12.92,12.92,0,0,0,.86-5.73c-.07-2-.4-4.16-.51-6.37a61.2,61.2,0,0,1,3.19-22.14,55.18,55.18,0,0,1,2.57-6.31c.33-.73.64-1.27.84-1.64a2.5,2.5,0,0,1,.33-.56,3.63,3.63,0,0,1-.24.6c-.16.39-.44.95-.75,1.69a64.71,64.71,0,0,0-2.4,6.33,63.37,63.37,0,0,0-3,22c.1,2.16.43,4.28.5,6.37a13.35,13.35,0,0,1-.92,5.92,84.83,84.83,0,0,0-3.11,9.56c-.72,2.77-1.19,5-1.53,6.61-.15.74-.28,1.34-.38,1.8A2.81,2.81,0,0,1,243.83,279.07Z" style="fill:#263238"></path><path d="M249,164a20.27,20.27,0,0,1,20-18.91h1c11.33.51,17.22,10.41,16.4,21.72L285,212.14h0l-25.76,10.44-.15-20.24s-10.9-1.54-11.18-12.42C247.76,184.67,248.36,173.83,249,164Z" style="fill:#ffbe9d"></path><path d="M259,202.33a26.46,26.46,0,0,0,14.2-4.36s-3.25,7.87-14.11,7Z" style="fill:#eb996e"></path><path d="M251.45,171.66c.2.2,1.36-.69,3-.7s2.9.8,3.08.59-.11-.45-.65-.84a4.24,4.24,0,0,0-2.47-.72,4,4,0,0,0-2.41.81C251.53,171.2,251.36,171.57,251.45,171.66Z" style="fill:#263238"></path><path d="M267.89,172c.2.2,1.36-.69,3-.7s2.91.8,3.09.59-.11-.45-.65-.84a4.27,4.27,0,0,0-2.48-.72,4.1,4.1,0,0,0-2.41.81C268,171.53,267.79,171.9,267.89,172Z" style="fill:#263238"></path><path d="M262,181.89a10.64,10.64,0,0,0-2.72-.45c-.43,0-.83-.12-.91-.41a2.22,2.22,0,0,1,.27-1.27c.39-1,.79-2.13,1.22-3.27,1.69-4.65,2.91-8.47,2.72-8.54s-1.71,3.65-3.4,8.3L258,179.54a2.54,2.54,0,0,0-.2,1.68,1.1,1.1,0,0,0,.71.61,3,3,0,0,0,.73.09A11.19,11.19,0,0,0,262,181.89Z" style="fill:#263238"></path><path d="M267.34,162.87c.17.45,1.84.21,3.8.42s3.56.73,3.82.32c.11-.2-.17-.62-.82-1.06a6.64,6.64,0,0,0-5.8-.56C267.63,162.29,267.27,162.65,267.34,162.87Z" style="fill:#263238"></path><path d="M252,164.47c.3.38,1.44,0,2.83-.07s2.56.23,2.82-.18c.12-.19-.07-.57-.59-.92a4.12,4.12,0,0,0-4.56.2C252,163.9,251.85,164.29,252,164.47Z" style="fill:#263238"></path><path d="M284.88,174.9c.18-.08,7.44-2.31,7.31,5.13s-7.58,5.77-7.59,5.55S284.88,174.9,284.88,174.9Z" style="fill:#ffbe9d"></path><path d="M286.27,182.82s.13.09.34.19a1.25,1.25,0,0,0,1,0,3.21,3.21,0,0,0,1.54-2.85,4.32,4.32,0,0,0-.33-1.86,1.48,1.48,0,0,0-1-1,.66.66,0,0,0-.78.34c-.1.2-.06.35-.09.37s-.16-.13-.1-.44a.89.89,0,0,1,.3-.46,1,1,0,0,1,.72-.17,1.82,1.82,0,0,1,1.34,1.17,4.57,4.57,0,0,1,.41,2.09c-.08,1.49-.87,2.88-1.95,3.17a1.37,1.37,0,0,1-1.18-.22C286.28,183,286.24,182.83,286.27,182.82Z" style="fill:#eb996e"></path><path d="M279.76,152.85l-31,1a14.28,14.28,0,0,1,4.5-5.33,24.28,24.28,0,0,1,14-5.21c5.06-.14,15.43,5.9,19.13,9.35,3,2.75,3,5.17,3,5.17.51,4-1.69,8.61-2.54,12.57-.44,2-1.26,8.21-1.26,8.21h0c-1.71,0-2.36-1.34-2.12-3l.25-6.63a10,10,0,0,1-3.19-11.66C280.9,156.73,281.82,154,279.76,152.85Z" style="fill:#263238"></path><path d="M273.51,176.45a.21.21,0,0,0,.22-.17.2.2,0,0,0-.15-.23.18.18,0,0,0-.21.16A.2.2,0,0,0,273.51,176.45Z" style="fill:#eb996e"></path><path d="M270.31,175.76a.2.2,0,0,0,.22-.19.21.21,0,0,0-.14-.26.21.21,0,0,0-.22.19A.2.2,0,0,0,270.31,175.76Z" style="fill:#eb996e"></path><path d="M268.16,175.74c.1,0,.19-.11.21-.28s-.05-.31-.15-.32-.2.11-.21.28S268.05,175.73,268.16,175.74Z" style="fill:#eb996e"></path><path d="M272,178.47c.1,0,.18-.05.18-.12s-.08-.12-.19-.12-.18.06-.18.12S271.86,178.47,272,178.47Z" style="fill:#eb996e"></path><path d="M269,177.83a.21.21,0,1,0-.17-.22A.2.2,0,0,0,269,177.83Z" style="fill:#eb996e"></path><path d="M253.76,176.21A.19.19,0,0,0,254,176a.2.2,0,0,0-.14-.24.21.21,0,0,0-.22.18A.18.18,0,0,0,253.76,176.21Z" style="fill:#eb996e"></path><path d="M251.58,176a.21.21,0,0,0,.21-.21.22.22,0,0,0-.17-.25c-.1,0-.19.09-.2.22S251.48,176,251.58,176Z" style="fill:#eb996e"></path><path d="M255.69,176.24a.18.18,0,0,0,.21-.12.19.19,0,0,0-.16-.2.16.16,0,1,0-.05.32Z" style="fill:#eb996e"></path><path d="M254.1,178.44a.22.22,0,0,0,.17-.39.2.2,0,0,0-.26.12A.21.21,0,0,0,254.1,178.44Z" style="fill:#eb996e"></path><path d="M252.24,178.09a.17.17,0,0,0,.13-.2.17.17,0,0,0-.22-.09.16.16,0,0,0-.13.2A.17.17,0,0,0,252.24,178.09Z" style="fill:#eb996e"></path><path d="M286.57,153.12a9.18,9.18,0,0,0-9.29-11.3,28.76,28.76,0,0,1-4.33.37c-2.68-.27-4.78-2.39-7.28-3.41a9.44,9.44,0,0,0-11.11,3.47c-.93,1.42-1.53,3.17-3,4.07-1.24.78-2.82.73-4.22,1.17a6.91,6.91,0,0,0-4.56,6.89,8.14,8.14,0,0,0,5,6.77,10,10,0,0,0,8.57-.7c2.32-1.33,4.39-3.57,7.07-3.52s5.22,2.63,7.94,2.06a7.7,7.7,0,0,0,3.54-2.43,6.16,6.16,0,0,1,3.67-2.17c1.45-.11,2.23,1.88,1.73,3.24l6.2-4.51" style="fill:#263238"></path><path d="M249.31,149.94a.34.34,0,0,0,.05.11c0,.07.1.17.19.3a5.15,5.15,0,0,0,.9,1,5.63,5.63,0,0,0,1.85,1.05,5.28,5.28,0,0,0,2.82.13,5.61,5.61,0,0,0,2.95-1.72c.83-.94,1.32-2.19,2.1-3.29a4.45,4.45,0,0,1,1.48-1.38,4.36,4.36,0,0,1,2.06-.47,4.66,4.66,0,0,1,2.11.54,4,4,0,0,1,1.58,1.58c.38.68.66,1.43,1.11,2.08a2.57,2.57,0,0,0,2,1.19,3.82,3.82,0,0,0,2.16-.65A8.15,8.15,0,0,0,274.3,149a7,7,0,0,1,3.05-2.23,3.9,3.9,0,0,1,3.12.7,5.38,5.38,0,0,1,1.74,2.1,8.86,8.86,0,0,1,.66,2c.12.56.18,1,.22,1.31a3.57,3.57,0,0,0,.07.46s0,0,0-.12,0-.19,0-.35a12.68,12.68,0,0,0-.16-1.33,8.67,8.67,0,0,0-.63-2,5.44,5.44,0,0,0-1.76-2.2,4.11,4.11,0,0,0-3.31-.77,7.12,7.12,0,0,0-3.19,2.27,7.29,7.29,0,0,1-1.58,1.34,3.61,3.61,0,0,1-2,.6,2.28,2.28,0,0,1-1.77-1.07,23.2,23.2,0,0,1-1.1-2A4.22,4.22,0,0,0,266,146a5,5,0,0,0-2.25-.58,4.68,4.68,0,0,0-2.19.52,4.75,4.75,0,0,0-1.58,1.47c-.79,1.15-1.27,2.38-2.06,3.29a5.37,5.37,0,0,1-2.81,1.67,5.16,5.16,0,0,1-2.72-.08,5.8,5.8,0,0,1-1.83-1A6.88,6.88,0,0,1,249.31,149.94Z" style="fill:#455a64"></path><path d="M243.69,150.12a1.85,1.85,0,0,0-.12.6,4.92,4.92,0,0,0,.18,1.66,5.67,5.67,0,0,0,1.19,2.17,6.71,6.71,0,0,0,2.47,1.76,10,10,0,0,0,5.41.55,15.42,15.42,0,0,0,1.62-.34,2.52,2.52,0,0,0,.58-.2s-.85.17-2.22.33a10.43,10.43,0,0,1-5.27-.62,6.81,6.81,0,0,1-2.39-1.66,5.79,5.79,0,0,1-1.19-2.06A6.7,6.7,0,0,1,243.69,150.12Z" style="fill:#455a64"></path><path d="M261.68,187a7.52,7.52,0,0,0,1,1.86,2.49,2.49,0,0,0,1.78,1,2.26,2.26,0,0,0,1.88-1,3.61,3.61,0,0,0,.5-2.16c0-.67-.36-1.48-1-1.55a1.7,1.7,0,0,0-.82.19l-3.52,1.47" style="fill:#eb996e"></path><path d="M263.13,189.87a5,5,0,0,0,1.88-.25,2.7,2.7,0,0,0,1.41-1.31,2.84,2.84,0,0,0,0-2.32,2.65,2.65,0,0,0-.31-.52c-.14-.15-.12-.14-.27-.12a5.58,5.58,0,0,0-.56.23l-.58.24c-.76.32-1.44.59-2,.82a6.54,6.54,0,0,1-1.92.6,6.72,6.72,0,0,1,1.74-1c.56-.28,1.22-.6,2-.94l.57-.26c.21-.09.36-.18.65-.28a.84.84,0,0,1,.52,0,.91.91,0,0,1,.39.31,3,3,0,0,1,.41.66,3.3,3.3,0,0,1-.08,2.84,3,3,0,0,1-1.78,1.47,2.94,2.94,0,0,1-1.53.08C263.28,190,263.11,189.91,263.13,189.87Z" style="fill:#263238"></path><path d="M305.1,282.65a4.35,4.35,0,0,1,.84-.62c.55-.36,1.38-.85,2.44-1.4a23.07,23.07,0,0,1,8.89-2.63,15.13,15.13,0,0,1,9,2.17,10.43,10.43,0,0,1,2.17,1.82,3.78,3.78,0,0,1,.62.82,20.35,20.35,0,0,0-3-2.32,15.4,15.4,0,0,0-8.75-2,25,25,0,0,0-8.77,2.44C306.4,282,305.15,282.72,305.1,282.65Z" style="fill:#263238"></path><path d="M301.7,318.3l-1.34,50.6-113.48.34a11.08,11.08,0,0,1-11.11-10.95h0a11.08,11.08,0,0,1,10.72-11.2l9.81-.32-.53-21.55a5.65,5.65,0,0,1,5.58-5.79Z" style="fill:#455a64"></path><rect x="253.03" y="355.16" width="6.63" height="66.8" transform="matrix(-1, 0.01, -0.01, -1, 517.06, 774.2)" style="fill:#455a64"></rect><rect x="165.74" y="416.61" width="94.26" height="5.57" transform="translate(430.48 836.35) rotate(179.35)" style="fill:#455a64"></rect><path d="M251.15,460a62.74,62.74,0,1,1,.73,0Zm0-125.18h-.73a62.93,62.93,0,1,0,.73,0Z" style="fill:#e0e0e0"></path><path d="M219.59,397.82c17.22-.2,31.17-.38,31.17-.39s-13.95.14-31.18.35-31.17.38-31.16.39S202.38,398,219.59,397.82Z" style="fill:#e0e0e0"></path><path d="M220.07,403c17-3,30.7-5.44,30.7-5.45l-30.71,5.4c-16.95,3-30.7,5.43-30.69,5.44S203.12,406,220.07,403Z" style="fill:#e0e0e0"></path><path d="M221.38,408c16.24-5.74,29.4-10.4,29.39-10.42l-29.4,10.38C205.14,413.67,192,418.33,192,418.35Z" style="fill:#e0e0e0"></path><path d="M223.5,412.69c15.08-8.32,27.29-15.08,27.29-15.09s-12.23,6.73-27.31,15.06-27.28,15.07-27.28,15.08S208.43,421,223.5,412.69Z" style="fill:#e0e0e0"></path><path d="M226.36,417c13.52-10.67,24.47-19.33,24.46-19.34s-11,8.63-24.48,19.31-24.47,19.32-24.46,19.33Z" style="fill:#e0e0e0"></path><path d="M229.88,420.78c11.61-12.72,21-23,21-23s-9.43,10.3-21,23-21,23-21,23S218.28,433.49,229.88,420.78Z" style="fill:#e0e0e0"></path><path d="M234,423.94c9.39-14.44,17-26.14,17-26.15l-17,26.13c-9.38,14.43-17,26.13-17,26.14S224.58,438.37,234,423.94Z" style="fill:#e0e0e0"></path><path d="M238.52,426.39c6.9-15.77,12.49-28.56,12.48-28.57s-5.61,12.78-12.52,28.56S226,454.94,226,454.94,231.61,442.16,238.52,426.39Z" style="fill:#e0e0e0"></path><path d="M243.4,428.07c4.23-16.7,7.64-30.23,7.63-30.23s-3.44,13.52-7.67,30.22-7.63,30.22-7.62,30.23S239.18,444.76,243.4,428.07Z" style="fill:#e0e0e0"></path><path d="M248.5,428.92c1.44-17.16,2.59-31.07,2.58-31.07s-1.18,13.9-2.62,31.07S245.87,460,245.88,460,247.07,446.07,248.5,428.92Z" style="fill:#e0e0e0"></path><path d="M253.67,428.93c-1.34-17.17-2.44-31.08-2.46-31.08s1.07,13.92,2.42,31.09S256.08,460,256.09,460,255,446.09,253.67,428.93Z" style="fill:#e0e0e0"></path><path d="M258.78,428.11c-4.13-16.72-7.49-30.27-7.5-30.27s3.33,13.56,7.46,30.28,7.49,30.26,7.5,30.25S262.91,444.82,258.78,428.11Z" style="fill:#e0e0e0"></path><path d="M263.68,426.46c-6.82-15.82-12.36-28.63-12.38-28.62s5.52,12.82,12.34,28.63S276,455.09,276,455.09,270.5,442.26,263.68,426.46Z" style="fill:#e0e0e0"></path><path d="M268.24,424c-9.32-14.49-16.88-26.22-16.89-26.21s7.54,11.75,16.86,26.23,16.88,26.21,16.89,26.2S277.56,438.5,268.24,424Z" style="fill:#e0e0e0"></path><path d="M272.35,420.88c-11.55-12.77-20.92-23.12-20.93-23.11s9.35,10.37,20.9,23.14S293.23,444,293.24,444,283.89,433.65,272.35,420.88Z" style="fill:#e0e0e0"></path><path d="M275.89,417.12c-13.47-10.74-24.39-19.43-24.4-19.42s10.9,8.72,24.37,19.45,24.38,19.42,24.39,19.41Z" style="fill:#e0e0e0"></path><path d="M278.77,412.83c-15-8.4-27.23-15.2-27.23-15.19s12.17,6.82,27.21,15.23S306,428.06,306,428.05Z" style="fill:#e0e0e0"></path><path d="M280.91,408.13c-16.21-5.83-29.35-10.54-29.35-10.53s13.13,4.74,29.33,10.57,29.34,10.53,29.34,10.52S297.1,414,280.91,408.13Z" style="fill:#e0e0e0"></path><path d="M282.25,403.14c-16.95-3.09-30.68-5.58-30.68-5.57l30.67,5.61c16.93,3.08,30.67,5.57,30.67,5.56S299.18,406.22,282.25,403.14Z" style="fill:#e0e0e0"></path><path d="M282.76,398c-17.23-.29-31.18-.51-31.18-.5l31.18.54,31.16.51S300,398.28,282.76,398Z" style="fill:#e0e0e0"></path><path d="M282.43,392.83c-17.05,2.49-30.86,4.52-30.85,4.54s13.81-2,30.85-4.5,30.84-4.52,30.84-4.53S299.46,390.34,282.43,392.83Z" style="fill:#e0e0e0"></path><path d="M281.26,387.79l-29.69,9.54s13.3-4.24,29.7-9.5S311,378.31,311,378.3,297.65,382.54,281.26,387.79Z" style="fill:#e0e0e0"></path><path d="M279.28,383c-15.32,7.88-27.72,14.27-27.72,14.28s12.42-6.36,27.74-14.24S307,368.78,307,368.77,294.59,375.14,279.28,383Z" style="fill:#e0e0e0"></path><path d="M276.55,378.63c-13.83,10.27-25,18.6-25,18.61s11.22-8.31,25-18.58,25-18.6,25-18.61S290.36,368.36,276.55,378.63Z" style="fill:#e0e0e0"></path><path d="M273.14,374.74c-12,12.38-21.68,22.42-21.67,22.42s9.72-10,21.7-22.39,21.67-22.41,21.66-22.41S285.11,362.37,273.14,374.74Z" style="fill:#e0e0e0"></path><path d="M269.15,371.46c-9.82,14.16-17.76,25.64-17.75,25.64s8-11.46,17.78-25.61,17.75-25.63,17.74-25.64S279,357.32,269.15,371.46Z" style="fill:#e0e0e0"></path><path d="M264.67,368.88c-7.37,15.56-13.33,28.18-13.32,28.19s6-12.61,13.36-28.18S278,340.72,278,340.71,272,353.32,264.67,368.88Z" style="fill:#e0e0e0"></path><path d="M259.84,367.06c-4.72,16.56-8.53,30-8.52,30s3.84-13.42,8.56-30,8.52-30,8.51-30S264.55,350.5,259.84,367.06Z" style="fill:#e0e0e0"></path><path d="M254.77,366.06c-1.94,17.11-3.5,31-3.49,31s1.59-13.87,3.53-31,3.5-31,3.48-31S256.7,349,254.77,366.06Z" style="fill:#e0e0e0"></path><path d="M249.6,365.89c.84,17.21,1.54,31.15,1.55,31.15s-.66-14-1.51-31.15-1.54-31.13-1.55-31.13S248.75,348.7,249.6,365.89Z" style="fill:#e0e0e0"></path><path d="M244.47,366.57c3.63,16.83,6.59,30.47,6.6,30.47s-2.92-13.65-6.56-30.48-6.59-30.47-6.6-30.47S240.83,349.74,244.47,366.57Z" style="fill:#e0e0e0"></path><path d="M239.52,368.07c6.35,16,11.51,29,11.52,29s-5.13-13-11.48-29-11.51-29-11.52-29S233.17,352.08,239.52,368.07Z" style="fill:#e0e0e0"></path><path d="M234.89,370.37c8.89,14.75,16.1,26.7,16.11,26.69s-7.19-12-16.08-26.71-16.1-26.7-16.11-26.69S226,355.63,234.89,370.37Z" style="fill:#e0e0e0"></path><path d="M230.69,373.39c11.18,13.11,20.24,23.73,20.25,23.72s-9-10.64-20.21-23.75-20.23-23.72-20.24-23.71S219.53,360.29,230.69,373.39Z" style="fill:#e0e0e0"></path><path d="M227.05,377.05l23.81,20.12s-10.64-9-23.79-20.15-23.8-20.13-23.81-20.12S213.91,365.93,227.05,377.05Z" style="fill:#e0e0e0"></path><path d="M224,381.25c14.78,8.84,26.77,16,26.77,16s-12-7.18-26.75-16-26.75-16-26.76-16S209.27,372.42,224,381.25Z" style="fill:#e0e0e0"></path><path d="M221.76,385.89c16,6.3,29,11.4,29,11.39s-13-5.13-29-11.43-29-11.4-29-11.39S205.75,379.59,221.76,385.89Z" style="fill:#e0e0e0"></path><path d="M220.27,390.84c16.85,3.58,30.5,6.48,30.51,6.47s-13.65-2.93-30.5-6.51-30.49-6.48-30.49-6.47S203.44,387.26,220.27,390.84Z" style="fill:#e0e0e0"></path><path d="M219.62,396c17.2.79,31.15,1.42,31.15,1.4s-14-.66-31.15-1.44-31.14-1.42-31.14-1.41S202.42,395.18,219.62,396Z" style="fill:#e0e0e0"></path><path d="M246.1,397.5a4.58,4.58,0,1,0,4.53-4.62A4.57,4.57,0,0,0,246.1,397.5Z" style="fill:#455a64"></path><path d="M150.75,452.48a17.82,17.82,0,1,0,17.62-18A17.81,17.81,0,0,0,150.75,452.48Zm4-.05a13.83,13.83,0,1,1,14,13.68A13.83,13.83,0,0,1,154.74,452.43Z" style="fill:#263238"></path><polygon points="166.09 450.56 170.37 450.51 169.3 355.53 184.31 355.36 184.26 351.08 164.97 351.3 166.09 450.56" style="fill:#455a64"></polygon><path d="M146.25,459.31c0-.54-.63-78.52-.4-93.29a9,9,0,0,1,3.09-7.11c5.82-5,17.78-3.39,17.9-3.38l.59-4.23c-.57-.08-14-1.88-21.27,4.36A13.19,13.19,0,0,0,141.58,366c-.24,14.82.39,92.85.39,93.38Z" style="fill:#455a64"></path><rect x="112.25" y="456.03" width="34.28" height="4.18" transform="translate(263.95 914.75) rotate(179.35)" style="fill:#455a64"></rect><path d="M178.93,397.73a72.24,72.24,0,1,0,71.42-73.05A72.24,72.24,0,0,0,178.93,397.73Zm5.1-.05c-.43-37.84,29.28-68.86,66.36-69.28s67.48,29.92,67.91,67.76S289,465,251.94,465.43,184.46,435.51,184,397.68Z" style="fill:#263238"></path><path d="M328.25,284.12a52,52,0,0,0-1.8,6c-1.28,4.8-29.78,47.13-29.78,47.13s-2.05,6.13-4.69,7.76-13,5.2-13,5.2l-3.92-2.62s-3,1.9-4.85.06a6.61,6.61,0,0,1-2.09-3.44s-1.37,2.94-2.72,1.36a5,5,0,0,1-1.36-2.9l2.82-9.34,3.43-1.63s-4.77.85-8-.45c0,0-3.14-1.34-3.32-2.48l.89-1.43s4.05.87,6.26.44,10.21-2.44,10.21-2.44l8.77,1.38,19.47-39.78,1.33-4.8c8.22-4,16-5.82,22.3-.25Z" style="fill:#ffbe9d"></path></g></svg>